<svg width="168" height="57" viewBox="0 0 168 57" fill="none" xmlns="http://www.w3.org/2000/svg">
<g clip-path="url(#clip0_62_1043)">
<path d="M164.673 41.2617C165.188 41.2617 165.682 41.4679 166.047 41.835C166.411 42.202 166.616 42.6998 166.616 43.2189C166.616 43.738 166.411 44.2358 166.047 44.6029C165.682 44.9699 165.188 45.1761 164.673 45.1761C164.157 45.1761 163.663 44.9699 163.299 44.6029C162.934 44.2358 162.729 43.738 162.729 43.2189C162.729 42.6998 162.934 42.202 163.299 41.835C163.663 41.4679 164.157 41.2617 164.673 41.2617ZM164.673 44.8544C164.995 44.8624 165.313 44.7733 165.585 44.5985C165.858 44.4237 166.072 44.1712 166.201 43.8732C166.33 43.5751 166.368 43.2451 166.31 42.9252C166.252 42.6054 166.1 42.3102 165.875 42.0774C165.649 41.8447 165.36 41.6849 165.044 41.6184C164.728 41.552 164.4 41.582 164.101 41.7045C163.802 41.827 163.546 42.0365 163.366 42.3063C163.185 42.576 163.089 42.8938 163.089 43.2189C163.085 43.4319 163.124 43.6436 163.201 43.8417C163.279 44.0399 163.395 44.2207 163.542 44.3738C163.689 44.5269 163.864 44.6494 164.058 44.7341C164.252 44.8189 164.461 44.8643 164.673 44.8678V44.8544ZM164.26 44.2109C164.26 44.3316 164.26 44.4388 164.1 44.4388C163.941 44.4388 163.941 44.3316 163.941 44.2109V42.1867C163.941 42.1867 163.941 42.0929 164.047 42.0929H164.806C165.325 42.0929 165.578 42.3074 165.578 42.7363C165.585 42.8906 165.532 43.0416 165.43 43.1569C165.328 43.2722 165.185 43.3426 165.032 43.353L165.511 44.0903C165.55 44.1405 165.573 44.2011 165.578 44.2646C165.574 44.3013 165.557 44.3354 165.53 44.3603C165.503 44.3851 165.468 44.3988 165.431 44.3986C165.389 44.3959 165.349 44.3821 165.314 44.3586C165.279 44.335 165.25 44.3026 165.232 44.2646L164.686 43.3664H164.26V44.2109ZM164.26 43.1385H164.673C164.965 43.1385 165.258 43.1385 165.258 42.7631C165.258 42.3878 165.005 42.3878 164.753 42.3878H164.26V43.1385Z" fill="#212426"/>
<path d="M87.041 36.8248C87.2805 31.3956 86.1093 24.9476 77.0725 24.961C72.1748 24.961 68.4482 28.9826 68.4482 34.6129C68.4482 40.2432 72.2813 44.3587 77.0725 44.3587C78.0231 44.3912 78.9682 44.1997 79.8323 43.7994C80.6965 43.3991 81.4559 42.801 82.0501 42.0529C82.1382 42.6507 82.4423 43.1947 82.904 43.5806C83.3657 43.9666 83.9526 44.1672 84.5522 44.1442C87.041 44.1442 87.041 42.1602 87.041 40.8732V36.8248ZM77.8045 29.5724C80.4663 29.5724 81.7972 32.2535 81.7972 34.6129C81.7972 36.9722 80.4663 39.7472 77.8045 39.7472C75.1427 39.7472 73.6787 37.0661 73.6787 34.6129C73.6787 32.1597 75.0096 29.5724 77.8045 29.5724Z" fill="#212426"/>
<path d="M49.7479 29.198C49.5611 28.7253 49.475 28.2183 49.495 27.71C49.5012 27.3712 49.5762 27.0373 49.7155 26.7288C49.8547 26.4204 50.0552 26.144 50.3046 25.9166C50.5541 25.6892 50.8471 25.5158 51.1657 25.4069C51.4842 25.298 51.8216 25.2561 52.1568 25.2836C52.686 25.2721 53.2035 25.4405 53.6261 25.7615C54.0486 26.0825 54.3515 26.5375 54.4859 27.0531L57.8132 36.9597H57.893L61.2203 27.0531C61.3547 26.5375 61.6577 26.0825 62.0802 25.7615C62.5027 25.4405 63.0203 25.2721 63.5494 25.2836C63.8847 25.2561 64.222 25.298 64.5406 25.4069C64.8591 25.5158 65.1522 25.6892 65.4016 25.9166C65.651 26.144 65.8515 26.4204 65.9908 26.7288C66.13 27.0373 66.205 27.3712 66.2112 27.71C66.2103 28.2231 66.1014 28.7303 65.8918 29.198L60.5682 42.1611C60.3806 42.7707 60.0042 43.3038 59.4941 43.6824C58.984 44.0611 58.367 44.2653 57.7333 44.2653C57.0997 44.2653 56.4827 44.0611 55.9726 43.6824C55.4625 43.3038 55.0861 42.7707 54.8985 42.1611L49.6414 29.198" fill="#212426"/>
<path d="M90.621 27.7895C90.6241 27.4463 90.6963 27.1073 90.8334 26.793C90.9704 26.4787 91.1695 26.1958 91.4184 25.9614C91.6673 25.7269 91.961 25.5459 92.2815 25.4292C92.602 25.3126 92.9426 25.2627 93.2828 25.2827C94.6137 25.2827 95.8249 25.7787 95.8249 27.374H95.8914C96.2694 26.736 96.8055 26.2079 97.4471 25.8413C98.0887 25.4747 98.8138 25.2822 99.5514 25.2827C101.974 25.1085 103.464 25.9262 103.464 27.7359C103.464 28.6475 102.626 29.8942 100.496 29.4384C99.9116 29.3015 99.3052 29.2868 98.7147 29.3951C98.1241 29.5035 97.5618 29.7327 97.0626 30.0685C95.7317 31.1945 95.8249 32.6021 95.8249 34.5995V41.4631C95.8978 41.8506 95.885 42.2496 95.7873 42.6315C95.6896 43.0134 95.5094 43.3689 95.2597 43.6727C95.0099 43.9764 94.6967 44.2209 94.3423 44.3887C93.988 44.5566 93.6012 44.6436 93.2097 44.6436C92.8181 44.6436 92.4313 44.5566 92.077 44.3887C91.7226 44.2209 91.4094 43.9764 91.1596 43.6727C90.9099 43.3689 90.7297 43.0134 90.632 42.6315C90.5343 42.2496 90.5215 41.8506 90.5944 41.4631V27.7895" fill="#212426"/>
<path d="M106.42 28.0711C106.347 27.6836 106.36 27.2847 106.457 26.9027C106.555 26.5208 106.735 26.1653 106.985 25.8616C107.235 25.5578 107.548 25.3133 107.902 25.1455C108.257 24.9776 108.643 24.8906 109.035 24.8906C109.426 24.8906 109.813 24.9776 110.168 25.1455C110.522 25.3133 110.835 25.5578 111.085 25.8616C111.335 26.1653 111.515 26.5208 111.612 26.9027C111.71 27.2847 111.723 27.6836 111.65 28.0711V41.4766C111.723 41.8641 111.71 42.263 111.612 42.6449C111.515 43.0269 111.335 43.3824 111.085 43.6861C110.835 43.9899 110.522 44.2344 110.168 44.4022C109.813 44.57 109.426 44.657 109.035 44.657C108.643 44.657 108.257 44.57 107.902 44.4022C107.548 44.2344 107.235 43.9899 106.985 43.6861C106.735 43.3824 106.555 43.0269 106.457 42.6449C106.36 42.263 106.347 41.8641 106.42 41.4766V28.0711Z" fill="#212426"/>
<path d="M111.968 21.7576C111.954 22.5327 111.637 23.2712 111.087 23.8131C110.537 24.355 109.796 24.6568 109.027 24.6531C108.264 24.6367 107.537 24.3279 106.993 23.7899C106.449 23.2518 106.129 22.525 106.099 21.7576C106.149 21.008 106.48 20.3056 107.025 19.7926C107.569 19.2795 108.287 18.9941 109.033 18.9941C109.779 18.9941 110.497 19.2795 111.042 19.7926C111.587 20.3056 111.918 21.008 111.968 21.7576Z" fill="#212426"/>
<path d="M131.173 36.4358C132.77 36.4358 133.462 35.6985 133.462 34.2105C133.384 31.7057 132.322 29.3346 130.509 27.6188C128.695 25.903 126.28 24.983 123.793 25.0612C121.306 25.1395 118.952 26.2095 117.249 28.0359C115.545 29.8623 114.632 32.2956 114.71 34.8003C114.671 36.0967 114.9 37.387 115.381 38.5899C115.863 39.7927 116.587 40.882 117.507 41.7889C118.427 42.6959 119.524 43.4008 120.729 43.8592C121.933 44.3176 123.219 44.5195 124.505 44.4522C128.378 44.4522 133.023 42.3744 133.023 40.2027C132.991 39.6407 132.755 39.1102 132.36 38.7121C131.965 38.3141 131.438 38.0764 130.88 38.0444C129.549 38.0444 127.659 40.0687 124.971 40.0687C122.549 40.0687 120.406 38.9158 120.033 36.4358H131.173ZM119.927 33.0978C120.004 32.0558 120.469 31.0817 121.23 30.3707C121.99 29.6597 122.989 29.2643 124.026 29.2639C124.55 29.2386 125.075 29.3178 125.569 29.497C126.063 29.6761 126.517 29.9516 126.905 30.3077C127.293 30.6638 127.608 31.0936 127.831 31.5724C128.054 32.0511 128.181 32.5695 128.205 33.0978H119.887" fill="#212426"/>
<path d="M138.455 29.8804H137.337C137.038 29.9122 136.736 29.878 136.452 29.7801C136.168 29.6822 135.908 29.523 135.692 29.3137C135.475 29.1043 135.306 28.8498 135.197 28.568C135.088 28.2861 135.042 27.9837 135.061 27.6819C135.059 27.3845 135.117 27.0899 135.232 26.816C135.346 26.542 135.515 26.2946 135.729 26.0888C135.942 25.883 136.194 25.7231 136.471 25.619C136.747 25.5149 137.042 25.4688 137.337 25.4834H138.495V21.4617C138.422 21.0742 138.434 20.6753 138.532 20.2934C138.63 19.9114 138.81 19.5559 139.06 19.2522C139.31 18.9484 139.623 18.7039 139.977 18.5361C140.331 18.3683 140.718 18.2812 141.11 18.2812C141.501 18.2812 141.888 18.3683 142.242 18.5361C142.597 18.7039 142.91 18.9484 143.16 19.2522C143.41 19.5559 143.59 19.9114 143.687 20.2934C143.785 20.6753 143.798 21.0742 143.725 21.4617V25.4834H145.202C146.533 25.4834 147.704 26.0866 147.704 27.6819C147.704 29.2771 146.547 29.8804 145.202 29.8804H143.725V41.4627C143.798 41.8502 143.785 42.2491 143.687 42.631C143.59 43.013 143.41 43.3685 143.16 43.6722C142.91 43.976 142.597 44.2205 142.242 44.3883C141.888 44.5561 141.501 44.6432 141.11 44.6432C140.718 44.6432 140.331 44.5561 139.977 44.3883C139.623 44.2205 139.31 43.976 139.06 43.6722C138.81 43.3685 138.63 43.013 138.532 42.631C138.434 42.2491 138.422 41.8502 138.495 41.4627V29.8804" fill="#212426"/>
<path d="M150.644 28.7808C150.469 28.3564 150.383 27.8999 150.391 27.4403C150.466 26.8386 150.759 26.2859 151.213 25.8877C151.667 25.4896 152.251 25.274 152.853 25.282C153.427 25.2479 153.997 25.4018 154.477 25.7208C154.956 26.0397 155.321 26.5066 155.515 27.0515L159.095 36.4353L162.942 27.0515C163.136 26.5066 163.5 26.0397 163.98 25.7208C164.46 25.4018 165.029 25.2479 165.603 25.282C166.195 25.2899 166.765 25.5124 167.207 25.9088C167.65 26.3052 167.936 26.8489 168.012 27.4403C168.04 27.9028 167.948 28.3647 167.746 28.7808L159.015 49.7202C158.85 50.2605 158.527 50.7379 158.087 51.0896C157.648 51.4413 157.113 51.6508 156.553 51.6907C154.77 51.6907 153.825 50.6183 153.825 49.5325C153.844 49.0287 153.957 48.533 154.158 48.0713L156.434 42.6287L150.644 28.7808Z" fill="#212426"/>
<path d="M57.7344 50.7268H57.4815C57.3978 50.7328 57.3138 50.7206 57.2353 50.691C57.1567 50.6615 57.0853 50.6153 57.026 50.5555C56.9667 50.4958 56.9208 50.4239 56.8915 50.3448C56.8622 50.2656 56.85 50.181 56.856 50.0968C56.8541 50.0135 56.8691 49.9308 56.8999 49.8535C56.9307 49.7762 56.9767 49.7061 57.0351 49.6472C57.0936 49.5883 57.1633 49.542 57.24 49.5109C57.3167 49.4799 57.3988 49.4649 57.4815 49.4667H57.8009V48.5954C57.7917 48.4942 57.8034 48.3922 57.8352 48.2957C57.867 48.1993 57.9183 48.1106 57.9858 48.035C58.0533 47.9595 58.1355 47.8988 58.2274 47.8569C58.3192 47.8149 58.4187 47.7925 58.5196 47.791C58.6211 47.7904 58.7215 47.8114 58.8144 47.8527C58.9072 47.894 58.9903 47.9547 59.0582 48.0307C59.1261 48.1066 59.1773 48.1962 59.2083 48.2936C59.2393 48.3909 59.2496 48.4938 59.2383 48.5954V49.4667H59.6509C60.0235 49.4667 60.3429 49.6276 60.3429 50.0968C60.3429 50.566 60.0235 50.7268 59.6509 50.7268H59.2383V54.0648C59.2496 54.1664 59.2393 54.2692 59.2083 54.3666C59.1773 54.4639 59.1261 54.5535 59.0582 54.6295C58.9903 54.7055 58.9072 54.7661 58.8144 54.8074C58.7215 54.8487 58.6211 54.8697 58.5196 54.8691C58.4187 54.8677 58.3192 54.8453 58.2274 54.8033C58.1355 54.7613 58.0533 54.7006 57.9858 54.6251C57.9183 54.5496 57.867 54.4608 57.8352 54.3644C57.8034 54.268 57.7917 54.166 57.8009 54.0648L57.7344 50.7268Z" fill="#212426"/>
<path d="M60.6876 47.8707C60.6784 47.7696 60.6901 47.6676 60.7219 47.5711C60.7537 47.4747 60.805 47.3859 60.8725 47.3104C60.94 47.2349 61.0222 47.1742 61.1141 47.1322C61.2059 47.0903 61.3054 47.0678 61.4063 47.0664C61.5078 47.0658 61.6083 47.0868 61.7011 47.1281C61.7939 47.1694 61.8771 47.2301 61.945 47.306C62.0129 47.382 62.064 47.4716 62.095 47.569C62.1261 47.6663 62.1362 47.7692 62.125 47.8707V49.8413C62.2973 49.6657 62.5058 49.5303 62.7358 49.4446C62.9657 49.3589 63.2115 49.325 63.4559 49.3453C63.7192 49.3198 63.985 49.3519 64.2349 49.4395C64.4848 49.527 64.713 49.6679 64.9038 49.8524C65.0947 50.037 65.2437 50.261 65.3406 50.5089C65.4376 50.7569 65.4802 51.023 65.4656 51.2891V54.0641C65.4747 54.1653 65.463 54.2673 65.4312 54.3637C65.3994 54.4601 65.3482 54.5489 65.2807 54.6244C65.2132 54.6999 65.1309 54.7606 65.0391 54.8026C64.9472 54.8446 64.8477 54.867 64.7469 54.8684C64.6454 54.869 64.5449 54.848 64.4521 54.8067C64.3592 54.7654 64.2761 54.7048 64.2082 54.6288C64.1403 54.5528 64.0892 54.4632 64.0581 54.3658C64.0271 54.2685 64.0169 54.1657 64.0282 54.0641V51.5707C64.0282 51.3218 63.93 51.0831 63.7553 50.9071C63.5806 50.7311 63.3436 50.6323 63.0965 50.6323C62.8495 50.6323 62.6125 50.7311 62.4378 50.9071C62.2631 51.0831 62.1649 51.3218 62.1649 51.5707V54.0909C62.1762 54.1925 62.166 54.2953 62.135 54.3927C62.1039 54.49 62.0528 54.5796 61.9849 54.6556C61.917 54.7316 61.8339 54.7922 61.741 54.8335C61.6482 54.8748 61.5477 54.8958 61.4462 54.8952C61.3454 54.8938 61.2459 54.8714 61.154 54.8294C61.0621 54.7874 60.9799 54.7267 60.9124 54.6512C60.8449 54.5757 60.7937 54.4869 60.7619 54.3905C60.73 54.2941 60.7184 54.1921 60.7275 54.0909L60.6876 47.8707Z" fill="#212426"/>
<path d="M67.743 52.6155C67.7952 52.9256 67.9607 53.2049 68.207 53.3984C68.4533 53.5919 68.7625 53.6856 69.0739 53.6611C69.8192 53.6611 70.3249 53.0713 70.6976 53.0713C70.8567 53.0843 71.0055 53.1556 71.1158 53.2717C71.2262 53.3878 71.2905 53.5407 71.2965 53.7013C71.2965 54.318 69.9656 54.9212 68.9408 54.9212C68.5832 54.9214 68.2294 54.8491 67.9002 54.7085C67.571 54.568 67.2733 54.3621 67.0249 54.1031C66.7765 53.8441 66.5824 53.5373 66.4542 53.2011C66.3261 52.8649 66.2665 52.5062 66.279 52.1463C66.256 51.4565 66.5061 50.7859 66.9741 50.2818C67.4421 49.7778 68.0896 49.4816 68.7744 49.4585C69.4592 49.4354 70.125 49.6872 70.6255 50.1586C71.1259 50.63 71.4199 51.2823 71.4429 51.972C71.4565 52.0597 71.4494 52.1493 71.4222 52.2336C71.3949 52.318 71.3482 52.3946 71.2859 52.4574C71.2237 52.5201 71.1475 52.5671 71.0638 52.5946C70.9801 52.6221 70.8911 52.6292 70.8041 52.6155H67.743ZM70.0055 51.6503C70.0055 51.3445 69.8849 51.0513 69.6703 50.8351C69.4556 50.6189 69.1645 50.4974 68.8609 50.4974C68.5574 50.4974 68.2663 50.6189 68.0516 50.8351C67.837 51.0513 67.7164 51.3445 67.7164 51.6503H70.0055Z" fill="#212426"/>
<path d="M78.4953 50.941C78.136 50.941 77.8165 50.6594 77.3507 50.6594C76.5389 50.6594 76.1396 51.3967 76.1396 52.1474C76.1101 52.5011 76.221 52.8521 76.4481 53.1235C76.6751 53.3949 76.9997 53.5645 77.3507 53.5952C77.7123 53.5232 78.0682 53.4246 78.4155 53.3003C78.5803 53.3037 78.7374 53.3712 78.854 53.4886C78.9706 53.6061 79.0376 53.7643 79.041 53.9304C79.041 54.6811 77.8032 54.9224 77.2842 54.9224C76.5899 54.8808 75.9393 54.5672 75.4716 54.0485C75.004 53.5299 74.7565 52.8476 74.7821 52.1474C74.766 51.7931 74.8199 51.4391 74.9407 51.1059C75.0614 50.7727 75.2467 50.4669 75.4856 50.2063C75.7245 49.9457 76.0123 49.7355 76.3325 49.5878C76.6527 49.44 76.9988 49.3577 77.3507 49.3457C77.923 49.3457 79.1075 49.5468 79.1075 50.2573C79.1075 50.5522 78.8946 50.941 78.5618 50.941" fill="#212426"/>
<path d="M79.8943 47.871C79.8804 47.7686 79.8884 47.6644 79.9178 47.5653C79.9472 47.4663 79.9974 47.3748 80.0648 47.2969C80.1323 47.219 80.2155 47.1565 80.3089 47.1138C80.4023 47.071 80.5038 47.0488 80.6064 47.0488C80.709 47.0488 80.8104 47.071 80.9039 47.1138C80.9973 47.1565 81.0805 47.219 81.148 47.2969C81.2154 47.3748 81.2655 47.4663 81.2949 47.5653C81.3243 47.6644 81.3324 47.7686 81.3184 47.871V49.8416C81.4908 49.666 81.6993 49.5305 81.9292 49.4448C82.1592 49.3591 82.405 49.3252 82.6493 49.3456C82.9095 49.3262 83.1708 49.3628 83.4159 49.4531C83.6609 49.5433 83.884 49.6852 84.0704 49.8691C84.2568 50.053 84.402 50.2748 84.4967 50.5197C84.5913 50.7646 84.633 51.027 84.6191 51.2894V54.0643C84.6283 54.1655 84.6166 54.2675 84.5848 54.3639C84.5529 54.4604 84.5017 54.5491 84.4342 54.6247C84.3667 54.7002 84.2844 54.7608 84.1926 54.8028C84.1007 54.8448 84.0012 54.8672 83.9004 54.8687C83.7989 54.8693 83.6984 54.8483 83.6055 54.807C83.5127 54.7657 83.4296 54.705 83.3617 54.629C83.2938 54.553 83.2427 54.4634 83.2117 54.3661C83.1806 54.2688 83.1704 54.1659 83.1817 54.0643V51.5709C83.1817 51.322 83.0835 51.0834 82.9088 50.9074C82.7341 50.7314 82.4971 50.6325 82.25 50.6325C82.0029 50.6325 81.766 50.7314 81.5913 50.9074C81.4166 51.0834 81.3184 51.322 81.3184 51.5709V54.0911C81.3324 54.1935 81.3243 54.2978 81.2949 54.3968C81.2655 54.4958 81.2154 54.5874 81.148 54.6653C81.0805 54.7432 80.9973 54.8056 80.9039 54.8484C80.8104 54.8912 80.709 54.9133 80.6064 54.9133C80.5038 54.9133 80.4023 54.8912 80.3089 54.8484C80.2155 54.8056 80.1323 54.7432 80.0648 54.6653C79.9974 54.5874 79.9472 54.4958 79.9178 54.3968C79.8884 54.2978 79.8804 54.1935 79.8943 54.0911V47.871Z" fill="#212426"/>
<path d="M87.2936 48.0175C87.2954 48.1266 87.2758 48.2351 87.2359 48.3366C87.1961 48.4381 87.1368 48.5307 87.0614 48.6091C86.986 48.6876 86.896 48.7503 86.7966 48.7937C86.6971 48.837 86.5902 48.8603 86.4818 48.862C86.2652 48.8518 86.0605 48.7587 85.9097 48.6018C85.7588 48.4449 85.6731 48.2359 85.6699 48.0175C85.6831 47.8075 85.7736 47.61 85.9238 47.4637C86.074 47.3174 86.273 47.2328 86.4818 47.2266C86.6916 47.2297 86.8923 47.3133 87.0431 47.4602C87.1939 47.6071 87.2835 47.8064 87.2936 48.0175ZM85.7631 50.2294C85.7539 50.1282 85.7656 50.0262 85.7974 49.9298C85.8292 49.8333 85.8805 49.7446 85.948 49.6691C86.0155 49.5935 86.0977 49.5329 86.1896 49.4909C86.2814 49.4489 86.3809 49.4265 86.4818 49.4251C86.5833 49.4244 86.6837 49.4454 86.7766 49.4868C86.8694 49.5281 86.9525 49.5887 87.0204 49.6647C87.0883 49.7407 87.1395 49.8303 87.1705 49.9276C87.2015 50.0249 87.2117 50.1278 87.2004 50.2294V54.0902C87.2117 54.1918 87.2015 54.2946 87.1705 54.3919C87.1395 54.4893 87.0883 54.5789 87.0204 54.6549C86.9525 54.7309 86.8694 54.7915 86.7766 54.8328C86.6837 54.8741 86.5833 54.8951 86.4818 54.8945C86.3809 54.8931 86.2814 54.8707 86.1896 54.8287C86.0977 54.7867 86.0155 54.726 85.948 54.6505C85.8805 54.575 85.8292 54.4862 85.7974 54.3898C85.7656 54.2934 85.7539 54.1913 85.7631 54.0902V50.2294Z" fill="#212426"/>
<path d="M88.3316 47.8707C88.3203 47.7691 88.3305 47.6663 88.3616 47.569C88.3926 47.4716 88.4438 47.382 88.5116 47.306C88.5795 47.2301 88.6627 47.1694 88.7555 47.1281C88.8483 47.0868 88.9488 47.0658 89.0503 47.0664C89.1512 47.0678 89.2507 47.0903 89.3425 47.1322C89.4344 47.1742 89.5166 47.2349 89.5841 47.3104C89.6516 47.3859 89.7029 47.4747 89.7347 47.5711C89.7665 47.6676 89.7782 47.7696 89.769 47.8707V54.0641C89.7782 54.1653 89.7665 54.2673 89.7347 54.3637C89.7029 54.4601 89.6516 54.5489 89.5841 54.6244C89.5166 54.6999 89.4344 54.7606 89.3425 54.8026C89.2507 54.8446 89.1512 54.867 89.0503 54.8684C88.9488 54.869 88.8483 54.848 88.7555 54.8067C88.6627 54.7654 88.5795 54.7048 88.5116 54.6288C88.4438 54.5528 88.3926 54.4632 88.3616 54.3658C88.3305 54.2685 88.3203 54.1657 88.3316 54.0641V47.8707Z" fill="#212426"/>
<path d="M95.8234 54.0641C95.8326 54.1652 95.8209 54.2673 95.7891 54.3637C95.7572 54.4601 95.706 54.5489 95.6385 54.6244C95.571 54.6999 95.4888 54.7606 95.3969 54.8026C95.305 54.8445 95.2055 54.867 95.1047 54.8684C94.9317 54.8767 94.7619 54.8193 94.6288 54.7076C94.4958 54.5959 94.4091 54.438 94.386 54.2651C94.235 54.4765 94.0345 54.6471 93.8023 54.7617C93.5702 54.8762 93.3135 54.9313 93.0551 54.922C92.4016 54.8098 91.8085 54.4683 91.3809 53.958C90.9533 53.4477 90.7188 52.8014 90.7188 52.1337C90.7188 51.4659 90.9533 50.8197 91.3809 50.3093C91.8085 49.799 92.4016 49.4575 93.0551 49.3453C93.543 49.3469 94.0146 49.5227 94.386 49.8413V47.8707C94.3747 47.7691 94.3849 47.6663 94.416 47.569C94.447 47.4716 94.4981 47.382 94.566 47.306C94.6339 47.2301 94.717 47.1694 94.8099 47.1281C94.9027 47.0868 95.0032 47.0658 95.1047 47.0664C95.2055 47.0678 95.305 47.0903 95.3969 47.1322C95.4888 47.1742 95.571 47.2349 95.6385 47.3104C95.706 47.3859 95.7572 47.4747 95.7891 47.5711C95.8209 47.6676 95.8326 47.7696 95.8234 47.8707V54.0641ZM93.2547 50.6725C92.5094 50.6725 92.1368 51.4634 92.1368 52.1471C92.1368 52.8308 92.5094 53.5949 93.2547 53.5949C94 53.5949 94.386 52.7905 94.386 52.0935C94.386 51.3964 94.0267 50.6725 93.2547 50.6725Z" fill="#212426"/>
<path d="M96.9699 50.1228C96.968 50.0261 96.9858 49.93 97.0221 49.8405C97.0584 49.7509 97.1124 49.6697 97.181 49.602C97.2495 49.5342 97.3311 49.4812 97.4206 49.4463C97.5102 49.4114 97.6059 49.3953 97.7019 49.3989C98.0879 49.3989 98.4073 49.5464 98.4073 50.0022C98.506 49.8189 98.6521 49.666 98.8303 49.5598C99.0084 49.4536 99.2118 49.398 99.4188 49.3989C99.5173 49.3985 99.6148 49.4189 99.705 49.4587C99.7952 49.4985 99.8762 49.5569 99.9426 49.6302C100.009 49.7034 100.06 49.7899 100.091 49.8839C100.122 49.978 100.133 50.0777 100.124 50.1765C100.124 50.6457 99.685 50.6725 99.2591 50.8736C98.8332 51.0746 98.394 51.2757 98.394 51.8387V54.064C98.4031 54.1652 98.3915 54.2672 98.3596 54.3637C98.3278 54.4601 98.2766 54.5488 98.2091 54.6244C98.1416 54.6999 98.0594 54.7606 97.9675 54.8025C97.8756 54.8445 97.7762 54.8669 97.6753 54.8684C97.5738 54.869 97.4733 54.848 97.3805 54.8067C97.2876 54.7654 97.2045 54.7047 97.1366 54.6288C97.0688 54.5528 97.0176 54.4632 96.9866 54.3658C96.9555 54.2685 96.9453 54.1656 96.9566 54.064L96.9699 50.1228Z" fill="#212426"/>
<path d="M101.64 52.6169C101.69 52.9285 101.855 53.2096 102.102 53.4036C102.348 53.5977 102.659 53.6902 102.971 53.6625C103.703 53.6625 104.209 53.0727 104.595 53.0727C104.752 53.0888 104.897 53.1614 105.005 53.2772C105.113 53.3931 105.175 53.5442 105.181 53.7027C105.181 54.3194 103.85 54.9226 102.838 54.9226C102.481 54.9229 102.127 54.8505 101.798 54.71C101.468 54.5694 101.171 54.3635 100.922 54.1045C100.674 53.8455 100.48 53.5387 100.352 53.2025C100.224 52.8664 100.164 52.5076 100.176 52.1477C100.165 51.8027 100.221 51.4587 100.342 51.1356C100.463 50.8124 100.645 50.5163 100.879 50.2643C101.114 50.0122 101.395 49.8091 101.707 49.6664C102.019 49.5238 102.356 49.4445 102.699 49.4331C103.041 49.4216 103.383 49.4783 103.703 49.5997C104.024 49.7212 104.318 49.9051 104.568 50.141C104.819 50.3769 105.02 50.6602 105.162 50.9746C105.304 51.289 105.382 51.6284 105.394 51.9734C105.394 52.4024 105.207 52.6169 104.768 52.6169H101.64ZM103.89 51.6517C103.859 51.3691 103.726 51.1077 103.516 50.9179C103.306 50.728 103.034 50.623 102.752 50.623C102.47 50.623 102.197 50.728 101.987 50.9179C101.777 51.1077 101.644 51.3691 101.614 51.6517H103.89Z" fill="#212426"/>
<path d="M106.193 50.2302C106.182 50.1286 106.192 50.0258 106.223 49.9284C106.254 49.8311 106.306 49.7415 106.373 49.6655C106.441 49.5895 106.524 49.5289 106.617 49.4876C106.71 49.4463 106.811 49.4252 106.912 49.4259C107.068 49.4143 107.223 49.4634 107.344 49.5632C107.466 49.6629 107.544 49.8057 107.564 49.9621C107.722 49.7621 107.925 49.6039 108.157 49.5011C108.389 49.3983 108.642 49.3541 108.895 49.3722C109.155 49.3528 109.417 49.3895 109.662 49.4797C109.907 49.57 110.13 49.7118 110.316 49.8957C110.503 50.0796 110.648 50.3014 110.742 50.5463C110.837 50.7912 110.879 51.0536 110.865 51.316V54.091C110.876 54.1926 110.866 54.2954 110.835 54.3928C110.804 54.4901 110.753 54.5797 110.685 54.6557C110.617 54.7317 110.534 54.7923 110.441 54.8336C110.348 54.8749 110.248 54.8959 110.146 54.8953C110.045 54.8939 109.946 54.8715 109.854 54.8295C109.762 54.7875 109.68 54.7268 109.612 54.6513C109.545 54.5758 109.494 54.487 109.462 54.3906C109.43 54.2942 109.418 54.1922 109.428 54.091V51.5707C109.443 51.439 109.431 51.3054 109.392 51.1788C109.352 51.0521 109.287 50.9353 109.199 50.8361C109.112 50.7368 109.005 50.6574 108.885 50.603C108.764 50.5485 108.634 50.5204 108.503 50.5204C108.371 50.5204 108.241 50.5485 108.12 50.603C108 50.6574 107.893 50.7368 107.806 50.8361C107.718 50.9353 107.653 51.0521 107.613 51.1788C107.574 51.3054 107.562 51.439 107.578 51.5707V54.091C107.587 54.1922 107.575 54.2942 107.543 54.3906C107.511 54.487 107.46 54.5758 107.393 54.6513C107.325 54.7268 107.243 54.7875 107.151 54.8295C107.059 54.8715 106.96 54.8939 106.859 54.8953C106.757 54.8959 106.657 54.8749 106.564 54.8336C106.471 54.7923 106.388 54.7317 106.32 54.6557C106.252 54.5797 106.201 54.4901 106.17 54.3928C106.139 54.2954 106.129 54.1926 106.14 54.091L106.193 50.2302Z" fill="#212426"/>
<path d="M110.877 48.1384C110.877 47.9784 110.94 47.825 111.052 47.7118C111.165 47.5987 111.317 47.5352 111.476 47.5352C111.635 47.5352 111.787 47.5987 111.899 47.7118C112.012 47.825 112.075 47.9784 112.075 48.1384V49.8409C112.075 50.0009 112.012 50.1543 111.899 50.2675C111.787 50.3806 111.635 50.4441 111.476 50.4441C111.317 50.4441 111.165 50.3806 111.052 50.2675C110.94 50.1543 110.877 50.0009 110.877 49.8409V48.1384Z" fill="#212426"/>
<path d="M116.042 51.0211C115.776 51.0211 115.23 50.6055 114.711 50.6055C114.458 50.6055 114.232 50.7262 114.232 51.0077C114.232 51.6779 116.721 51.5841 116.721 53.233C116.721 54.1982 115.909 54.9221 114.671 54.9221C113.873 54.9221 112.675 54.4663 112.675 53.8094C112.684 53.6461 112.75 53.4914 112.862 53.3734C112.975 53.2553 113.125 53.1817 113.287 53.1659C113.846 53.1659 114.099 53.6619 114.778 53.6619C115.217 53.6619 115.35 53.5145 115.35 53.2464C115.35 52.5895 112.848 52.6833 112.848 51.0211C112.855 50.7787 112.913 50.5405 113.017 50.3218C113.121 50.1031 113.269 49.9087 113.452 49.7509C113.635 49.5932 113.848 49.4757 114.079 49.4058C114.31 49.336 114.552 49.3154 114.791 49.3454C115.51 49.3454 116.588 49.6671 116.588 50.391C116.591 50.5523 116.532 50.7086 116.423 50.8264C116.313 50.9442 116.162 51.0141 116.002 51.0211" fill="#212426"/>
<path d="M124.226 50.941C123.867 50.941 123.547 50.6594 123.095 50.6594C122.269 50.6594 121.884 51.3967 121.884 52.1474C121.854 52.5011 121.965 52.8521 122.192 53.1235C122.419 53.3949 122.744 53.5645 123.095 53.5952C123.456 53.5214 123.812 53.4228 124.159 53.3003C124.323 53.3038 124.479 53.3717 124.593 53.4895C124.708 53.6073 124.772 53.7656 124.772 53.9304C124.772 54.6811 123.534 54.9224 123.015 54.9224C122.665 54.9103 122.321 54.8289 122.003 54.6828C121.685 54.5368 121.398 54.3289 121.159 54.0712C120.921 53.8135 120.735 53.5109 120.613 53.1808C120.49 52.8507 120.434 52.4996 120.446 52.1474C120.43 51.7931 120.484 51.4391 120.605 51.1059C120.726 50.7727 120.911 50.4669 121.15 50.2063C121.389 49.9457 121.676 49.7355 121.997 49.5878C122.317 49.44 122.663 49.3577 123.015 49.3457C123.587 49.3457 124.772 49.5468 124.772 50.2573C124.772 50.5522 124.559 50.941 124.226 50.941Z" fill="#212426"/>
<path d="M125.624 47.8707C125.612 47.7692 125.622 47.6663 125.654 47.569C125.685 47.4716 125.736 47.382 125.804 47.306C125.872 47.2301 125.955 47.1694 126.047 47.1281C126.14 47.0868 126.241 47.0658 126.342 47.0664C126.443 47.0678 126.543 47.0903 126.634 47.1322C126.726 47.1742 126.809 47.2349 126.876 47.3104C126.944 47.3859 126.995 47.4747 127.027 47.5711C127.058 47.6676 127.07 47.7696 127.061 47.8707V49.8413C127.235 49.6679 127.444 49.5339 127.673 49.4484C127.903 49.3628 128.148 49.3277 128.392 49.3453C128.651 49.3279 128.911 49.366 129.154 49.4572C129.398 49.5483 129.619 49.6905 129.804 49.8741C129.989 50.0578 130.133 50.2789 130.227 50.5228C130.321 50.7668 130.362 51.0279 130.348 51.2891V54.0641C130.36 54.1657 130.349 54.2685 130.318 54.3658C130.287 54.4632 130.236 54.5528 130.168 54.6288C130.1 54.7048 130.017 54.7654 129.924 54.8067C129.832 54.848 129.731 54.869 129.63 54.8684C129.529 54.867 129.429 54.8446 129.337 54.8026C129.246 54.7606 129.163 54.6999 129.096 54.6244C129.028 54.5489 128.977 54.4601 128.945 54.3637C128.913 54.2673 128.902 54.1653 128.911 54.0641V51.5707C128.925 51.4416 128.91 51.3111 128.869 51.1882C128.828 51.0652 128.761 50.9527 128.672 50.8585C128.583 50.7642 128.476 50.6903 128.356 50.642C128.237 50.5937 128.108 50.5721 127.979 50.5787C127.852 50.5763 127.726 50.6008 127.609 50.6508C127.492 50.7007 127.387 50.7748 127.301 50.8684C127.214 50.962 127.148 51.0729 127.107 51.1939C127.065 51.3148 127.05 51.4432 127.061 51.5707V54.0909C127.07 54.1921 127.058 54.2941 127.027 54.3905C126.995 54.4869 126.944 54.5757 126.876 54.6512C126.809 54.7267 126.726 54.7874 126.634 54.8294C126.543 54.8714 126.443 54.8938 126.342 54.8952C126.241 54.8958 126.14 54.8748 126.047 54.8335C125.955 54.7922 125.872 54.7316 125.804 54.6556C125.736 54.5796 125.685 54.49 125.654 54.3927C125.622 54.2953 125.612 54.1925 125.624 54.0909V47.8707Z" fill="#212426"/>
<path d="M136.43 53.9172C136.43 54.2926 136.43 54.869 135.738 54.869C135.326 54.869 135.153 54.6411 135.046 54.2524C134.89 54.459 134.689 54.6268 134.458 54.743C134.227 54.8591 133.973 54.9206 133.715 54.9227C133.375 54.9061 133.042 54.8202 132.736 54.67C132.43 54.5199 132.157 54.3087 131.934 54.0492C131.711 53.7897 131.543 53.4874 131.44 53.1606C131.337 52.8337 131.3 52.4891 131.333 52.1477C131.304 51.8056 131.343 51.4611 131.447 51.1343C131.552 50.8075 131.72 50.5049 131.941 50.2441C132.163 49.9833 132.434 49.7696 132.739 49.6154C133.043 49.4612 133.375 49.3696 133.715 49.346C133.973 49.3412 134.228 49.3983 134.46 49.5125C134.691 49.6268 134.892 49.7948 135.046 50.0029C135.069 49.8347 135.152 49.6806 135.279 49.5695C135.407 49.4585 135.57 49.3981 135.738 49.3996C136.43 49.3996 136.43 49.976 136.43 50.3514V53.9172ZM133.888 53.5955C134.634 53.5955 134.993 52.8314 134.993 52.1477C134.993 51.464 134.647 50.6731 133.888 50.6731C133.13 50.6731 132.744 51.4506 132.744 52.1477C132.744 52.8448 133.103 53.5955 133.888 53.5955Z" fill="#212426"/>
<path d="M137.576 50.1235C137.574 50.0256 137.592 49.9283 137.629 49.8378C137.666 49.7473 137.721 49.6655 137.791 49.5975C137.861 49.5295 137.945 49.4768 138.036 49.4428C138.127 49.4087 138.224 49.394 138.321 49.3996C138.694 49.3996 139.013 49.5471 139.013 50.0028C139.112 49.8196 139.258 49.6667 139.436 49.5604C139.614 49.4542 139.818 49.3986 140.025 49.3996C140.123 49.3991 140.221 49.4195 140.311 49.4593C140.401 49.4991 140.482 49.5576 140.548 49.6308C140.615 49.704 140.665 49.7905 140.697 49.8846C140.728 49.9787 140.739 50.0783 140.73 50.1771C140.73 50.6463 140.291 50.6731 139.865 50.8742C139.439 51.0753 139 51.2764 139 51.8394V54.0647C139 54.2567 138.924 54.4408 138.789 54.5766C138.655 54.7123 138.472 54.7886 138.281 54.7886C138.091 54.7886 137.908 54.7123 137.773 54.5766C137.638 54.4408 137.563 54.2567 137.562 54.0647L137.576 50.1235Z" fill="#212426"/>
<path d="M142.779 48.0175C142.781 48.1266 142.761 48.2351 142.721 48.3366C142.681 48.4381 142.622 48.5307 142.547 48.6091C142.471 48.6876 142.381 48.7503 142.282 48.7937C142.182 48.837 142.075 48.8603 141.967 48.862C141.75 48.8518 141.546 48.7587 141.395 48.6018C141.244 48.4449 141.158 48.2359 141.155 48.0175C141.168 47.8075 141.259 47.61 141.409 47.4637C141.559 47.3174 141.758 47.2328 141.967 47.2266C142.177 47.2297 142.378 47.3133 142.528 47.4602C142.679 47.6071 142.769 47.8064 142.779 48.0175ZM141.248 50.2294C141.237 50.1278 141.247 50.0249 141.278 49.9276C141.309 49.8303 141.361 49.7407 141.428 49.6647C141.496 49.5887 141.579 49.5281 141.672 49.4868C141.765 49.4454 141.866 49.4244 141.967 49.4251C142.068 49.4265 142.167 49.4489 142.259 49.4909C142.351 49.5329 142.433 49.5935 142.501 49.6691C142.568 49.7446 142.62 49.8333 142.651 49.9298C142.683 50.0262 142.695 50.1282 142.686 50.2294V54.0902C142.695 54.1913 142.683 54.2934 142.651 54.3898C142.62 54.4862 142.568 54.575 142.501 54.6505C142.433 54.726 142.351 54.7867 142.259 54.8287C142.167 54.8707 142.068 54.8931 141.967 54.8945C141.866 54.8951 141.765 54.8741 141.672 54.8328C141.579 54.7915 141.496 54.7309 141.428 54.6549C141.361 54.5789 141.309 54.4893 141.278 54.3919C141.247 54.2946 141.237 54.1918 141.248 54.0902V50.2294Z" fill="#212426"/>
<path d="M144.177 50.7268H143.857C143.774 50.7328 143.69 50.7206 143.611 50.691C143.533 50.6615 143.461 50.6153 143.402 50.5555C143.343 50.4958 143.297 50.4239 143.267 50.3448C143.238 50.2656 143.226 50.181 143.232 50.0968C143.23 50.0135 143.245 49.9308 143.276 49.8535C143.307 49.7762 143.353 49.7061 143.411 49.6472C143.47 49.5883 143.539 49.542 143.616 49.5109C143.693 49.4799 143.775 49.4649 143.857 49.4667H144.177V48.5954C144.168 48.4942 144.179 48.3922 144.211 48.2957C144.243 48.1993 144.294 48.1106 144.362 48.035C144.429 47.9595 144.512 47.8988 144.603 47.8569C144.695 47.8149 144.795 47.7925 144.896 47.791C144.997 47.7904 145.098 47.8114 145.19 47.8527C145.283 47.894 145.366 47.9547 145.434 48.0307C145.502 48.1066 145.553 48.1962 145.584 48.2936C145.615 48.3909 145.626 48.4938 145.614 48.5954V49.4667H146.027C146.4 49.4667 146.719 49.6276 146.719 50.0968C146.719 50.566 146.4 50.7268 146.027 50.7268H145.614V54.0648C145.626 54.1664 145.615 54.2692 145.584 54.3666C145.553 54.4639 145.502 54.5535 145.434 54.6295C145.366 54.7055 145.283 54.7661 145.19 54.8074C145.098 54.8487 144.997 54.8697 144.896 54.8691C144.795 54.8677 144.695 54.8453 144.603 54.8033C144.512 54.7613 144.429 54.7006 144.362 54.6251C144.294 54.5496 144.243 54.4608 144.211 54.3644C144.179 54.268 144.168 54.166 144.177 54.0648V50.7268Z" fill="#212426"/>
<path d="M146.972 50.3912C146.926 50.2716 146.903 50.1441 146.905 50.0158C146.925 49.8475 147.004 49.6921 147.129 49.5786C147.254 49.4651 147.416 49.4013 147.584 49.3992C147.743 49.3943 147.898 49.4413 148.028 49.5331C148.157 49.625 148.254 49.7567 148.303 49.9086L149.288 52.5897L150.352 49.9086C150.399 49.7555 150.495 49.6225 150.625 49.5303C150.756 49.4381 150.912 49.392 151.071 49.3992C151.239 49.4041 151.399 49.4688 151.523 49.5818C151.647 49.6947 151.728 49.8486 151.75 50.0158C151.755 50.1457 151.727 50.2747 151.67 50.3912L149.274 56.4236C149.234 56.5784 149.147 56.7168 149.026 56.82C148.904 56.9231 148.754 56.986 148.596 57.0001C148.504 57.0112 148.412 57.0035 148.324 56.9775C148.235 56.9515 148.153 56.9077 148.082 56.8488C148.011 56.7899 147.953 56.7171 147.911 56.6348C147.869 56.5525 147.844 56.4624 147.837 56.37C147.843 56.2269 147.874 56.086 147.93 55.9544L148.556 54.386L146.972 50.3912Z" fill="#212426"/>
<path d="M25.5387 22.8156C22.3845 26.5021 17.5533 31.3548 13.5606 33.6204C13.3875 32.4407 12.5757 28.6201 13.84 26.0061C14.3383 24.8445 15.1167 23.8266 16.1044 23.0448C17.0922 22.2629 18.2581 21.7418 19.4964 21.5287C20.5462 21.316 21.6275 21.316 22.6773 21.5287C23.7427 21.7039 24.7408 22.1672 25.5653 22.8692" fill="#EE3123"/>
<path d="M19.1523 2.98897C19.1867 3.53729 19.2758 4.08073 19.4184 4.61103C19.1794 4.63444 18.9387 4.63444 18.6997 4.61103C18.5712 4.07774 18.4823 3.53555 18.4336 2.98897C18.4336 2.89513 19.1523 2.98897 19.1523 2.98897Z" fill="white"/>
<path d="M19.5379 5.20117C20.255 8.31752 21.459 11.2994 23.1047 14.0354C22.9716 14.1292 22.5324 14.2901 22.4526 14.2365C20.7853 11.4393 19.5806 8.38776 18.8857 5.20117H19.5512" fill="white"/>
<path d="M39.7568 15.0209C35.5777 13.4525 30.9595 16.5893 26.1682 22.0051C22.3086 26.2011 19.7134 29.2843 15.521 32.2067C13.2851 33.7617 8.66685 35.8262 5.72556 34.8878C5.47546 34.8018 5.24467 34.6669 5.04638 34.491C4.84809 34.315 4.68624 34.1013 4.57004 33.8623C4.45383 33.6232 4.38558 33.3634 4.36919 33.0977C4.3528 32.832 4.38861 32.5657 4.47455 32.314C5.07255 30.8443 6.07862 29.5795 7.37221 28.6713C8.6658 27.763 10.192 27.2498 11.7679 27.1931C11.8479 26.6865 11.8255 26.169 11.702 25.6714C11.5785 25.1738 11.3564 24.7065 11.0492 24.2975C13.2244 22.1938 15.5905 20.2998 18.1163 18.6404C20.9007 16.8526 24.0312 15.6827 27.2995 15.2086L29.0031 17.0049L29.5221 16.5893C29.2959 16.2006 28.6836 15.7716 28.0714 14.8064C26.2631 11.8112 24.9169 8.55681 24.0787 5.15447C23.0273 1.13283 23.8392 0.449155 22.7478 0.154235C19.6046 -0.126102 16.4381 0.266454 13.4562 1.30612C10.4743 2.34579 7.74455 4.00906 5.44608 6.1867C2.86413 8.68011 0.455186 11.9779 0.0292969 15.8118C0.0292969 16.844 1.04081 17.4875 2.01237 17.7288C5.79213 18.1176 8.00143 21.4689 9.99779 24.1902C10.5701 25.0348 11.2089 25.8525 10.9427 26.4021C9.34909 26.6983 7.8557 27.3957 6.60148 28.4293C5.34726 29.4629 4.37297 30.7992 3.76917 32.314C3.63687 32.9141 3.64876 33.5374 3.80386 34.132C3.95896 34.7265 4.25275 35.2752 4.66085 35.7323C5.84536 36.9522 6.96331 37.9577 8.89311 37.7566C15.5476 37.0729 19.6601 33.2255 23.8525 28.3727C28.0448 23.52 29.6153 21.5628 33.2886 18.9889C35.4111 17.5759 37.9197 16.8681 40.4621 16.9647C42.1391 16.9647 42.8445 18.3052 43.0042 19.9273C43.1254 21.212 43.031 22.5082 42.7247 23.7613C42.5783 24.4718 42.8711 24.4718 43.297 24.8069C43.5838 23.9352 43.7844 23.0372 43.8959 22.1258C44.2818 18.9219 43.2704 16.281 39.7701 14.9673L39.7568 15.0209ZM10.6233 23.52C10.6233 23.52 5.93851 16.8172 2.19867 16.8977C1.40013 16.777 0.867772 16.1604 0.867772 15.6778C0.867772 13.4525 2.1987 11.7366 3.26342 9.88661C7.54893 4.06863 16.253 0.181046 22.4817 0.918346C23.2802 1.02559 21.6698 4.09544 26.9135 14.3238C24.6061 14.7123 22.3654 15.43 20.259 16.4553C16.7375 18.2954 13.5078 20.6538 10.6765 23.4529L10.6233 23.52ZM26.9801 23.4529C21.2971 29.6999 17.3177 35.5179 9.30569 36.6841C8.77953 36.8441 8.21923 36.8509 7.68938 36.7038C7.15953 36.5568 6.68173 36.2618 6.31116 35.853C8.29717 36.0327 10.2963 35.7101 12.1272 34.9146C20.8447 31.7643 27.0733 20.9595 32.3303 17.3803C34.9921 15.5973 38.6122 14.4177 40.2359 16.0397C35.5777 16.0397 32.0508 17.8897 26.9269 23.4529" fill="#212426"/>
<path d="M45.0114 29.1441C44.9373 32.0579 43.9497 34.8734 42.1899 37.1873C40.6327 39.359 38.5432 42.3484 37.3986 44.1045C35.8406 46.2191 34.5403 48.5145 33.5257 50.9413C33.2329 51.7993 32.6207 53.7163 32.6207 53.7163C30.5187 51.6944 28.2577 49.8474 25.8597 48.1932C23.5893 46.8207 21.4779 45.1976 19.5645 43.3538C17.6613 41.4771 15.1193 37.7772 14.9463 36.7584C19.3915 34.962 22.7454 31.1013 24.7018 28.5676C26.951 25.6586 29.8657 21.8649 34.0181 20.779C36.2708 20.1486 38.6728 20.3483 40.7924 21.3421C42.1178 22.1445 43.2026 23.2937 43.9314 24.6675C44.6602 26.0412 45.0058 27.5882 44.9315 29.1441" fill="#EE3123"/>
</g>
<defs>
<clipPath id="clip0_62_1043">
<rect width="168" height="57" fill="white"/>
</clipPath>
</defs>
</svg>
