<svg width="140" height="47" viewBox="0 0 140 47" fill="none" xmlns="http://www.w3.org/2000/svg">
<g clip-path="url(#clip0_3789_48376)">
<path d="M137.227 33.8501C137.656 33.8501 138.068 34.0183 138.372 34.3176C138.675 34.617 138.846 35.023 138.846 35.4464C138.846 35.8698 138.675 36.2758 138.372 36.5752C138.068 36.8745 137.656 37.0427 137.227 37.0427C136.797 37.0427 136.385 36.8745 136.082 36.5752C135.778 36.2758 135.607 35.8698 135.607 35.4464C135.607 35.023 135.778 34.617 136.082 34.3176C136.385 34.0183 136.797 33.8501 137.227 33.8501ZM137.227 36.7803C137.496 36.7868 137.76 36.7142 137.987 36.5716C138.214 36.4291 138.393 36.2231 138.5 35.98C138.608 35.7369 138.639 35.4677 138.591 35.2069C138.543 34.946 138.416 34.7053 138.229 34.5154C138.041 34.3256 137.8 34.1952 137.536 34.141C137.273 34.0869 136.999 34.1113 136.75 34.2112C136.501 34.3111 136.288 34.482 136.137 34.702C135.987 34.922 135.907 35.1812 135.907 35.4464C135.904 35.6201 135.936 35.7928 136.001 35.9544C136.065 36.116 136.162 36.2635 136.284 36.3883C136.407 36.5132 136.553 36.6131 136.715 36.6822C136.877 36.7513 137.05 36.7884 137.227 36.7912V36.7803ZM136.883 36.2555C136.883 36.3539 136.883 36.4414 136.75 36.4414C136.617 36.4414 136.617 36.3539 136.617 36.2555V34.6045C136.617 34.6045 136.617 34.528 136.705 34.528H137.338C137.77 34.528 137.981 34.7029 137.981 35.0528C137.987 35.1786 137.943 35.3018 137.858 35.3958C137.773 35.4899 137.654 35.5473 137.526 35.5557L137.925 36.1571C137.958 36.198 137.977 36.2475 137.981 36.2992C137.978 36.3292 137.964 36.357 137.941 36.3773C137.919 36.3975 137.889 36.4087 137.859 36.4086C137.824 36.4064 137.79 36.3951 137.761 36.3759C137.732 36.3567 137.708 36.3303 137.693 36.2992L137.238 35.5667H136.883V36.2555ZM136.883 35.3808H137.227C137.471 35.3808 137.715 35.3808 137.715 35.0747C137.715 34.7685 137.504 34.7685 137.293 34.7685H136.883V35.3808Z" fill="white"/>
<path d="M72.5349 30.2309C72.7346 25.8028 71.7586 20.5438 64.2279 20.5547C60.1465 20.5547 57.041 23.8348 57.041 28.4269C57.041 33.019 60.2352 36.3756 64.2279 36.3756C65.0201 36.4021 65.8076 36.2459 66.5277 35.9194C67.2479 35.5929 67.8807 35.1052 68.3759 34.495C68.4493 34.9826 68.7027 35.4263 69.0875 35.741C69.4722 36.0558 69.9613 36.2195 70.461 36.2007C72.5349 36.2007 72.5349 34.5825 72.5349 33.5329V30.2309ZM64.8379 24.3159C67.0561 24.3159 68.1651 26.5026 68.1651 28.4269C68.1651 30.3512 67.0561 32.6144 64.8379 32.6144C62.6197 32.6144 61.3997 30.4277 61.3997 28.4269C61.3997 26.426 62.5088 24.3159 64.8379 24.3159Z" fill="white"/>
<path d="M41.4572 24.0098C41.3016 23.6243 41.2298 23.2108 41.2465 22.7962C41.2517 22.5199 41.3142 22.2476 41.4302 21.996C41.5462 21.7444 41.7133 21.519 41.9212 21.3335C42.129 21.1481 42.3732 21.0066 42.6387 20.9178C42.9042 20.829 43.1853 20.7948 43.4647 20.8172C43.9056 20.8079 44.3369 20.9452 44.689 21.207C45.0411 21.4688 45.2936 21.8399 45.4056 22.2605L48.1783 30.3404H48.2449L51.0176 22.2605C51.1296 21.8399 51.382 21.4688 51.7341 21.207C52.0863 20.9452 52.5175 20.8079 52.9585 20.8172C53.2379 20.7948 53.519 20.829 53.7845 20.9178C54.0499 21.0066 54.2941 21.1481 54.502 21.3335C54.7098 21.519 54.8769 21.7444 54.993 21.996C55.109 22.2476 55.1715 22.5199 55.1767 22.7962C55.1759 23.2148 55.0852 23.6284 54.9105 24.0098L50.4741 34.5826C50.3178 35.0798 50.0041 35.5146 49.5791 35.8235C49.154 36.1323 48.6398 36.2989 48.1118 36.2989C47.5837 36.2989 47.0696 36.1323 46.6445 35.8235C46.2194 35.5146 45.9058 35.0798 45.7494 34.5826L41.3685 24.0098" fill="white"/>
<path d="M75.518 22.8616C75.5205 22.5817 75.5807 22.3052 75.695 22.0489C75.8092 21.7925 75.9751 21.5618 76.1825 21.3706C76.3899 21.1794 76.6346 21.0317 76.9017 20.9366C77.1688 20.8414 77.4527 20.8008 77.7362 20.8171C78.8453 20.8171 79.8545 21.2216 79.8545 22.5227H79.91C80.225 22.0024 80.6717 21.5716 81.2064 21.2726C81.741 20.9736 82.3453 20.8167 82.96 20.8171C84.9785 20.6749 86.2207 21.3419 86.2207 22.8179C86.2207 23.5614 85.522 24.5782 83.7474 24.2065C83.2602 24.0948 82.7549 24.0828 82.2627 24.1712C81.7705 24.2596 81.302 24.4465 80.886 24.7204C79.7769 25.6388 79.8545 26.7868 79.8545 28.4159V34.0139C79.9153 34.3299 79.9046 34.6553 79.8232 34.9668C79.7418 35.2783 79.5917 35.5683 79.3835 35.816C79.1754 36.0638 78.9144 36.2632 78.6191 36.4001C78.3238 36.5369 78.0015 36.6079 77.6752 36.6079C77.3489 36.6079 77.0266 36.5369 76.7313 36.4001C76.436 36.2632 76.175 36.0638 75.9669 35.816C75.7587 35.5683 75.6086 35.2783 75.5272 34.9668C75.4458 34.6553 75.4351 34.3299 75.4958 34.0139V22.8616" fill="white"/>
<path d="M88.6833 23.0916C88.6226 22.7755 88.6333 22.4502 88.7147 22.1387C88.7961 21.8272 88.9463 21.5372 89.1544 21.2895C89.3625 21.0417 89.6235 20.8423 89.9188 20.7054C90.2141 20.5685 90.5364 20.4976 90.8627 20.4976C91.189 20.4976 91.5113 20.5685 91.8066 20.7054C92.1019 20.8423 92.3629 21.0417 92.571 21.2895C92.7792 21.5372 92.9293 21.8272 93.0107 22.1387C93.0922 22.4502 93.1029 22.7755 93.0421 23.0916V34.0252C93.1029 34.3412 93.0922 34.6666 93.0107 34.9781C92.9293 35.2896 92.7792 35.5795 92.571 35.8273C92.3629 36.075 92.1019 36.2744 91.8066 36.4113C91.5113 36.5482 91.189 36.6192 90.8627 36.6192C90.5364 36.6192 90.2141 36.5482 89.9188 36.4113C89.6235 36.2744 89.3625 36.075 89.1544 35.8273C88.9463 35.5795 88.7961 35.2896 88.7147 34.9781C88.6333 34.6666 88.6226 34.3412 88.6833 34.0252V23.0916Z" fill="white"/>
<path d="M93.3071 17.9419C93.2954 18.5741 93.0317 19.1764 92.573 19.6184C92.1142 20.0604 91.4974 20.3065 90.856 20.3035C90.2207 20.2901 89.6146 20.0383 89.1612 19.5994C88.7078 19.1606 88.4413 18.5678 88.416 17.9419C88.4578 17.3305 88.7336 16.7577 89.1876 16.3392C89.6417 15.9208 90.24 15.688 90.8615 15.688C91.4831 15.688 92.0814 15.9208 92.5354 16.3392C92.9895 16.7577 93.2653 17.3305 93.3071 17.9419Z" fill="white"/>
<path d="M109.311 29.9137C110.642 29.9137 111.219 29.3124 111.219 28.0987C111.154 26.0558 110.269 24.122 108.758 22.7226C107.247 21.3231 105.233 20.5728 103.161 20.6366C101.089 20.7004 99.1272 21.5731 97.7077 23.0627C96.2881 24.5524 95.527 26.5369 95.5917 28.5798C95.5596 29.6371 95.7502 30.6895 96.1514 31.6706C96.5526 32.6516 97.1558 33.5401 97.9228 34.2798C98.6898 35.0195 99.604 35.5944 100.608 35.9683C101.612 36.3422 102.683 36.5069 103.755 36.452C106.982 36.452 110.853 34.7573 110.853 32.986C110.826 32.5277 110.63 32.095 110.3 31.7703C109.971 31.4457 109.532 31.2518 109.067 31.2257C107.958 31.2257 106.383 32.8767 104.143 32.8767C102.124 32.8767 100.339 31.9364 100.028 29.9137H109.311ZM99.9393 27.1912C100.004 26.3414 100.391 25.5469 101.025 24.967C101.658 24.3871 102.491 24.0646 103.355 24.0642C103.792 24.0437 104.229 24.1083 104.641 24.2544C105.053 24.4005 105.431 24.6252 105.755 24.9156C106.078 25.2061 106.34 25.5566 106.526 25.9471C106.712 26.3376 106.818 26.7603 106.838 27.1912H99.9061" fill="white"/>
<path d="M115.379 24.5672H114.447C114.198 24.5932 113.946 24.5653 113.71 24.4855C113.473 24.4056 113.257 24.2758 113.076 24.1051C112.895 23.9343 112.755 23.7267 112.664 23.4968C112.573 23.267 112.534 23.0203 112.55 22.7741C112.549 22.5316 112.597 22.2913 112.693 22.0679C112.788 21.8445 112.929 21.6427 113.107 21.4748C113.284 21.3069 113.495 21.1766 113.725 21.0917C113.956 21.0068 114.201 20.9691 114.447 20.981H115.412V17.701C115.351 17.3849 115.362 17.0595 115.443 16.748C115.525 16.4365 115.675 16.1466 115.883 15.8988C116.091 15.6511 116.352 15.4517 116.647 15.3148C116.943 15.1779 117.265 15.1069 117.591 15.1069C117.917 15.1069 118.24 15.1779 118.535 15.3148C118.83 15.4517 119.091 15.6511 119.299 15.8988C119.508 16.1466 119.658 16.4365 119.739 16.748C119.821 17.0595 119.831 17.3849 119.77 17.701V20.981H121.002C122.111 20.981 123.087 21.473 123.087 22.7741C123.087 24.0752 122.122 24.5672 121.002 24.5672H119.77V34.0138C119.831 34.3299 119.821 34.6553 119.739 34.9668C119.658 35.2783 119.508 35.5682 119.299 35.816C119.091 36.0637 118.83 36.2631 118.535 36.4C118.24 36.5369 117.917 36.6079 117.591 36.6079C117.265 36.6079 116.943 36.5369 116.647 36.4C116.352 36.2631 116.091 36.0637 115.883 35.816C115.675 35.5682 115.525 35.2783 115.443 34.9668C115.362 34.6553 115.351 34.3299 115.412 34.0138V24.5672" fill="white"/>
<path d="M125.537 23.6709C125.391 23.3248 125.319 22.9525 125.327 22.5776C125.389 22.0868 125.633 21.636 126.012 21.3113C126.39 20.9866 126.877 20.8107 127.378 20.8173C127.857 20.7894 128.331 20.915 128.731 21.1751C129.131 21.4353 129.435 21.8161 129.597 22.2605L132.58 29.914L135.785 22.2605C135.947 21.8161 136.251 21.4353 136.651 21.1751C137.051 20.915 137.525 20.7894 138.003 20.8173C138.497 20.8237 138.971 21.0052 139.34 21.3285C139.709 21.6518 139.947 22.0952 140.011 22.5776C140.034 22.9548 139.958 23.3315 139.789 23.6709L132.514 40.7492C132.376 41.1899 132.106 41.5792 131.74 41.8661C131.374 42.1529 130.928 42.3239 130.462 42.3564C128.976 42.3564 128.188 41.4817 128.188 40.5961C128.204 40.1852 128.298 39.781 128.465 39.4044L130.362 34.9653L125.537 23.6709Z" fill="white"/>
<path d="M48.1121 41.5693H47.9014C47.8317 41.5741 47.7617 41.5642 47.6962 41.5401C47.6307 41.516 47.5713 41.4783 47.5218 41.4296C47.4724 41.3808 47.4342 41.3222 47.4097 41.2577C47.3853 41.1931 47.3752 41.1241 47.3801 41.0554C47.3786 40.9875 47.3911 40.92 47.4167 40.857C47.4424 40.794 47.4807 40.7367 47.5294 40.6887C47.5781 40.6407 47.6362 40.6029 47.7001 40.5776C47.7641 40.5523 47.8325 40.54 47.9014 40.5415H48.1676V39.8308C48.1599 39.7483 48.1697 39.6651 48.1962 39.5865C48.2227 39.5078 48.2654 39.4354 48.3216 39.3738C48.3779 39.3122 48.4464 39.2627 48.523 39.2285C48.5995 39.1943 48.6824 39.176 48.7665 39.1748C48.8511 39.1743 48.9348 39.1914 49.0121 39.2251C49.0895 39.2588 49.1588 39.3083 49.2154 39.3703C49.2719 39.4322 49.3146 39.5053 49.3404 39.5847C49.3663 39.6641 49.3748 39.748 49.3654 39.8308V40.5415H49.7092C50.0198 40.5415 50.2859 40.6727 50.2859 41.0554C50.2859 41.4381 50.0198 41.5693 49.7092 41.5693H49.3654V44.2917C49.3748 44.3746 49.3663 44.4585 49.3404 44.5379C49.3146 44.6172 49.2719 44.6903 49.2154 44.7523C49.1588 44.8143 49.0895 44.8637 49.0121 44.8974C48.9348 44.9311 48.8511 44.9483 48.7665 44.9477C48.6824 44.9466 48.5995 44.9283 48.523 44.8941C48.4464 44.8598 48.3779 44.8103 48.3216 44.7487C48.2654 44.6871 48.2227 44.6147 48.1962 44.5361C48.1697 44.4575 48.1599 44.3743 48.1676 44.2917L48.1121 41.5693Z" fill="white"/>
<path d="M50.5728 39.24C50.5652 39.1575 50.5749 39.0743 50.6014 38.9956C50.628 38.917 50.6707 38.8446 50.7269 38.783C50.7832 38.7214 50.8517 38.6719 50.9282 38.6377C51.0048 38.6034 51.0877 38.5852 51.1718 38.584C51.2563 38.5835 51.3401 38.6006 51.4174 38.6343C51.4948 38.668 51.5641 38.7175 51.6206 38.7794C51.6772 38.8414 51.7198 38.9145 51.7457 38.9939C51.7716 39.0733 51.78 39.1571 51.7706 39.24V40.8472C51.9143 40.704 52.088 40.5935 52.2797 40.5236C52.4713 40.4537 52.6761 40.4261 52.8797 40.4427C53.0992 40.4219 53.3207 40.4481 53.5289 40.5195C53.7372 40.5908 53.9273 40.7057 54.0864 40.8563C54.2454 41.0068 54.3696 41.1895 54.4504 41.3917C54.5312 41.594 54.5667 41.811 54.5545 42.0281V44.2913C54.5621 44.3739 54.5524 44.4571 54.5259 44.5357C54.4994 44.6143 54.4566 44.6867 54.4004 44.7483C54.3442 44.8099 54.2756 44.8594 54.1991 44.8937C54.1225 44.9279 54.0396 44.9462 53.9556 44.9473C53.871 44.9479 53.7873 44.9307 53.7099 44.897C53.6325 44.8633 53.5633 44.8139 53.5067 44.7519C53.4501 44.6899 53.4075 44.6168 53.3816 44.5375C53.3558 44.4581 53.3473 44.3742 53.3567 44.2913V42.2577C53.3567 42.0547 53.2749 41.86 53.1293 41.7165C52.9837 41.573 52.7862 41.4923 52.5803 41.4923C52.3744 41.4923 52.1769 41.573 52.0313 41.7165C51.8857 41.86 51.8039 42.0547 51.8039 42.2577V44.3132C51.8133 44.3961 51.8048 44.4799 51.779 44.5593C51.7531 44.6387 51.7105 44.7118 51.6539 44.7738C51.5973 44.8357 51.5281 44.8852 51.4507 44.9189C51.3733 44.9526 51.2896 44.9697 51.205 44.9692C51.121 44.968 51.0381 44.9498 50.9615 44.9155C50.885 44.8813 50.8164 44.8318 50.7602 44.7702C50.7039 44.7086 50.6612 44.6362 50.6347 44.5576C50.6082 44.4789 50.5985 44.3957 50.6061 44.3132L50.5728 39.24Z" fill="white"/>
<path d="M56.4518 43.1107C56.4953 43.3637 56.6333 43.5915 56.8385 43.7493C57.0438 43.9071 57.3014 43.9835 57.5609 43.9635C58.182 43.9635 58.6035 43.4825 58.914 43.4825C59.0466 43.4931 59.1706 43.5512 59.2626 43.646C59.3545 43.7407 59.4081 43.8653 59.4131 43.9963C59.4131 44.4993 58.304 44.9913 57.45 44.9913C57.1521 44.9915 56.8572 44.9325 56.5828 44.8178C56.3085 44.7032 56.0604 44.5352 55.8534 44.324C55.6464 44.1128 55.4847 43.8626 55.3779 43.5884C55.2711 43.3142 55.2214 43.0216 55.2318 42.728C55.2127 42.1655 55.4211 41.6185 55.8111 41.2074C56.2011 40.7963 56.7407 40.5547 57.3114 40.5359C57.882 40.517 58.4369 40.7224 58.8539 41.1069C59.2709 41.4913 59.516 42.0234 59.5351 42.5859C59.5465 42.6574 59.5406 42.7305 59.5178 42.7993C59.4951 42.8681 59.4562 42.9306 59.4043 42.9818C59.3524 43.0329 59.289 43.0713 59.2192 43.0937C59.1494 43.1161 59.0752 43.1219 59.0027 43.1107H56.4518ZM58.3373 42.3235C58.3373 42.0741 58.2368 41.835 58.0579 41.6586C57.879 41.4823 57.6364 41.3832 57.3835 41.3832C57.1305 41.3832 56.8879 41.4823 56.709 41.6586C56.5302 41.835 56.4297 42.0741 56.4297 42.3235H58.3373Z" fill="white"/>
<path d="M65.4131 41.744C65.1136 41.744 64.8474 41.5144 64.4593 41.5144C63.7827 41.5144 63.45 42.1157 63.45 42.728C63.4254 43.0164 63.5178 43.3027 63.707 43.5241C63.8962 43.7454 64.1667 43.8838 64.4593 43.9088C64.7606 43.8501 65.0571 43.7697 65.3465 43.6683C65.4839 43.6711 65.6148 43.7261 65.712 43.8219C65.8091 43.9176 65.865 44.0467 65.8678 44.1822C65.8678 44.7944 64.8364 44.9912 64.4038 44.9912C63.8252 44.9573 63.2831 44.7015 62.8934 44.2785C62.5037 43.8555 62.2974 43.299 62.3187 42.728C62.3053 42.439 62.3503 42.1502 62.4509 41.8785C62.5515 41.6067 62.7059 41.3573 62.905 41.1448C63.1041 40.9323 63.3439 40.7608 63.6107 40.6403C63.8775 40.5198 64.166 40.4527 64.4593 40.4429C64.9362 40.4429 65.9233 40.6069 65.9233 41.1864C65.9233 41.4269 65.7458 41.744 65.4685 41.744" fill="white"/>
<path d="M66.5778 39.2404C66.5662 39.1569 66.5729 39.0719 66.5974 38.9911C66.6219 38.9103 66.6636 38.8357 66.7199 38.7721C66.7761 38.7086 66.8454 38.6577 66.9233 38.6228C67.0011 38.5879 67.0857 38.5698 67.1712 38.5698C67.2567 38.5698 67.3412 38.5879 67.4191 38.6228C67.4969 38.6577 67.5663 38.7086 67.6225 38.7721C67.6787 38.8357 67.7205 38.9103 67.745 38.9911C67.7695 39.0719 67.7761 39.1569 67.7645 39.2404V40.8476C67.9082 40.7044 68.0819 40.5939 68.2735 40.524C68.4651 40.4541 68.67 40.4265 68.8736 40.4431C69.0904 40.4272 69.3082 40.4571 69.5124 40.5307C69.7166 40.6044 69.9025 40.72 70.0578 40.87C70.2131 41.02 70.3342 41.2009 70.4131 41.4007C70.4919 41.6004 70.5267 41.8144 70.5151 42.0285V44.2917C70.5227 44.3742 70.513 44.4574 70.4865 44.5361C70.46 44.6147 70.4172 44.6871 70.361 44.7487C70.3048 44.8103 70.2362 44.8598 70.1596 44.894C70.0831 44.9283 70.0002 44.9466 69.9162 44.9477C69.8316 44.9482 69.7478 44.9311 69.6705 44.8974C69.5931 44.8637 69.5239 44.8143 69.4673 44.7523C69.4107 44.6903 69.3681 44.6172 69.3422 44.5378C69.3164 44.4585 69.3078 44.3746 69.3172 44.2917V42.2581C69.3172 42.0551 69.2355 41.8604 69.0899 41.7169C68.9443 41.5734 68.7468 41.4927 68.5409 41.4927C68.335 41.4927 68.1375 41.5734 67.9919 41.7169C67.8463 41.8604 67.7645 42.0551 67.7645 42.2581V44.3136C67.7761 44.3971 67.7695 44.4821 67.745 44.5629C67.7205 44.6437 67.6787 44.7183 67.6225 44.7818C67.5663 44.8454 67.4969 44.8963 67.4191 44.9312C67.3412 44.9661 67.2567 44.9841 67.1712 44.9841C67.0857 44.9841 67.0011 44.9661 66.9233 44.9312C66.8454 44.8963 66.7761 44.8454 66.7199 44.7818C66.6636 44.7183 66.6219 44.6437 66.5974 44.5629C66.5729 44.4821 66.5662 44.3971 66.5778 44.3136V39.2404Z" fill="white"/>
<path d="M72.7437 39.3604C72.7452 39.4494 72.7289 39.5379 72.6957 39.6207C72.6625 39.7035 72.613 39.779 72.5502 39.843C72.4874 39.9069 72.4124 39.9581 72.3295 39.9935C72.2466 40.0289 72.1575 40.0478 72.0672 40.0492C71.8867 40.0409 71.7161 39.965 71.5904 39.837C71.4647 39.709 71.3933 39.5386 71.3906 39.3604C71.4016 39.1891 71.4771 39.028 71.6022 38.9087C71.7273 38.7894 71.8932 38.7204 72.0672 38.7153C72.242 38.7179 72.4093 38.786 72.535 38.9059C72.6606 39.0257 72.7353 39.1882 72.7437 39.3604ZM71.4683 41.1645C71.4606 41.0819 71.4704 40.9987 71.4969 40.9201C71.5234 40.8414 71.5661 40.769 71.6223 40.7074C71.6786 40.6458 71.7471 40.5964 71.8237 40.5621C71.9002 40.5279 71.9831 40.5096 72.0672 40.5084C72.1518 40.5079 72.2355 40.5251 72.3129 40.5588C72.3902 40.5924 72.4595 40.6419 72.5161 40.7039C72.5726 40.7659 72.6153 40.8389 72.6411 40.9183C72.667 40.9977 72.6755 41.0816 72.6661 41.1645V44.3133C72.6755 44.3962 72.667 44.4801 72.6411 44.5595C72.6153 44.6388 72.5726 44.7119 72.5161 44.7739C72.4595 44.8359 72.3902 44.8853 72.3129 44.919C72.2355 44.9527 72.1518 44.9699 72.0672 44.9693C71.9831 44.9682 71.9002 44.9499 71.8237 44.9157C71.7471 44.8814 71.6786 44.8319 71.6223 44.7703C71.5661 44.7087 71.5234 44.6363 71.4969 44.5577C71.4704 44.4791 71.4606 44.3958 71.4683 44.3133V41.1645Z" fill="white"/>
<path d="M73.6092 39.24C73.5998 39.1571 73.6083 39.0733 73.6342 38.9939C73.66 38.9145 73.7026 38.8414 73.7592 38.7794C73.8158 38.7175 73.8851 38.668 73.9624 38.6343C74.0398 38.6006 74.1235 38.5835 74.2081 38.584C74.2921 38.5852 74.3751 38.6034 74.4516 38.6377C74.5282 38.6719 74.5967 38.7214 74.6529 38.783C74.7092 38.8446 74.7519 38.917 74.7784 38.9956C74.8049 39.0743 74.8147 39.1575 74.807 39.24V44.2913C74.8147 44.3738 74.8049 44.457 74.7784 44.5357C74.7519 44.6143 74.7092 44.6867 74.6529 44.7483C74.5967 44.8099 74.5282 44.8594 74.4516 44.8936C74.3751 44.9279 74.2921 44.9462 74.2081 44.9473C74.1235 44.9478 74.0398 44.9307 73.9624 44.897C73.8851 44.8633 73.8158 44.8139 73.7592 44.7519C73.7026 44.6899 73.66 44.6168 73.6342 44.5374C73.6083 44.4581 73.5998 44.3742 73.6092 44.2913V39.24Z" fill="white"/>
<path d="M79.8534 44.2913C79.8611 44.3739 79.8514 44.457 79.8248 44.5357C79.7983 44.6143 79.7556 44.6867 79.6994 44.7483C79.6431 44.8099 79.5746 44.8594 79.4981 44.8936C79.4215 44.9279 79.3386 44.9462 79.2545 44.9473C79.1104 44.9541 78.9689 44.9073 78.858 44.8162C78.7471 44.7251 78.6749 44.5963 78.6556 44.4553C78.5298 44.6277 78.3627 44.7668 78.1692 44.8603C77.9758 44.9537 77.7619 44.9987 77.5466 44.9911C77.0019 44.8996 76.5077 44.621 76.1514 44.2048C75.7951 43.7886 75.5996 43.2615 75.5996 42.7169C75.5996 42.1722 75.7951 41.6452 76.1514 41.229C76.5077 40.8127 77.0019 40.5342 77.5466 40.4427C77.9532 40.444 78.3461 40.5873 78.6556 40.8472V39.24C78.6462 39.1571 78.6547 39.0733 78.6806 38.9939C78.7065 38.9145 78.7491 38.8414 78.8057 38.7794C78.8622 38.7175 78.9315 38.668 79.0089 38.6343C79.0862 38.6006 79.17 38.5835 79.2545 38.584C79.3386 38.5852 79.4215 38.6034 79.4981 38.6377C79.5746 38.6719 79.6431 38.7214 79.6994 38.783C79.7556 38.8446 79.7983 38.917 79.8248 38.9956C79.8514 39.0743 79.8611 39.1575 79.8534 39.24V44.2913ZM77.7129 41.5251C77.0918 41.5251 76.7813 42.1702 76.7813 42.7278C76.7813 43.2854 77.0918 43.9086 77.7129 43.9086C78.334 43.9086 78.6556 43.2526 78.6556 42.6841C78.6556 42.1155 78.3562 41.5251 77.7129 41.5251Z" fill="white"/>
<path d="M80.8078 41.0772C80.8062 40.9983 80.821 40.9199 80.8512 40.8468C80.8815 40.7738 80.9265 40.7076 80.9836 40.6523C81.0408 40.597 81.1087 40.5538 81.1834 40.5254C81.258 40.4969 81.3378 40.4838 81.4178 40.4867C81.7394 40.4867 82.0056 40.607 82.0056 40.9788C82.0878 40.8293 82.2096 40.7046 82.3581 40.6179C82.5065 40.5313 82.676 40.486 82.8485 40.4867C82.9306 40.4864 83.0118 40.503 83.087 40.5355C83.1622 40.5679 83.2297 40.6156 83.285 40.6753C83.3404 40.7351 83.3825 40.8056 83.4085 40.8823C83.4346 40.9591 83.4441 41.0403 83.4363 41.1209C83.4363 41.5036 83.0703 41.5254 82.7154 41.6894C82.3605 41.8534 81.9945 42.0174 81.9945 42.4767V44.2916C82.0021 44.3742 81.9924 44.4573 81.9659 44.536C81.9394 44.6146 81.8967 44.687 81.8404 44.7486C81.7842 44.8102 81.7156 44.8597 81.6391 44.8939C81.5625 44.9282 81.4797 44.9465 81.3956 44.9476C81.311 44.9482 81.2273 44.931 81.1499 44.8973C81.0725 44.8636 81.0033 44.8142 80.9467 44.7522C80.8901 44.6902 80.8475 44.6171 80.8217 44.5378C80.7958 44.4584 80.7873 44.3745 80.7967 44.2916L80.8078 41.0772Z" fill="white"/>
<path d="M84.6999 43.1106C84.741 43.3647 84.8783 43.594 85.0841 43.7523C85.2899 43.9106 85.5489 43.986 85.809 43.9634C86.419 43.9634 86.8404 43.4824 87.1621 43.4824C87.2926 43.4955 87.414 43.5547 87.5037 43.6492C87.5934 43.7437 87.6454 43.8669 87.6501 43.9962C87.6501 44.4992 86.541 44.9912 85.6981 44.9912C85.4001 44.9914 85.1052 44.9324 84.8309 44.8177C84.5566 44.7031 84.3085 44.5351 84.1015 44.3239C83.8944 44.1127 83.7327 43.8625 83.6259 43.5883C83.5191 43.3141 83.4694 43.0215 83.4799 42.7279C83.4704 42.4465 83.5173 42.166 83.6178 41.9024C83.7183 41.6389 83.8705 41.3974 84.0656 41.1918C84.2608 40.9862 84.4951 40.8205 84.7552 40.7042C85.0153 40.5879 85.2961 40.5232 85.5816 40.5139C85.8671 40.5045 86.1516 40.5507 86.419 40.6498C86.6863 40.7489 86.9313 40.8989 87.1399 41.0913C87.3484 41.2837 87.5165 41.5147 87.6345 41.7711C87.7524 42.0275 87.818 42.3044 87.8275 42.5858C87.8275 42.9357 87.6722 43.1106 87.3062 43.1106H84.6999ZM86.5742 42.3234C86.5489 42.0929 86.4381 41.8797 86.2631 41.7249C86.0881 41.57 85.8612 41.4843 85.626 41.4843C85.3908 41.4843 85.1639 41.57 84.9889 41.7249C84.8138 41.8797 84.703 42.0929 84.6777 42.3234H86.5742Z" fill="white"/>
<path d="M88.4953 41.1643C88.4859 41.0815 88.4945 40.9976 88.5203 40.9182C88.5462 40.8388 88.5888 40.7657 88.6454 40.7037C88.702 40.6418 88.7712 40.5923 88.8486 40.5586C88.9259 40.5249 89.0097 40.5078 89.0943 40.5083C89.2244 40.4989 89.3532 40.5389 89.4543 40.6203C89.5554 40.7016 89.621 40.8181 89.6377 40.9457C89.7689 40.7826 89.9385 40.6535 90.1318 40.5697C90.3251 40.4858 90.5362 40.4498 90.7468 40.4646C90.9636 40.4487 91.1814 40.4786 91.3856 40.5522C91.5898 40.6259 91.7757 40.7415 91.931 40.8915C92.0863 41.0415 92.2074 41.2224 92.2862 41.4222C92.3651 41.6219 92.3998 41.8359 92.3882 42.0499V44.3132C92.3976 44.3961 92.3891 44.48 92.3633 44.5593C92.3374 44.6387 92.2948 44.7118 92.2382 44.7738C92.1816 44.8358 92.1123 44.8852 92.035 44.9189C91.9576 44.9526 91.8739 44.9697 91.7893 44.9692C91.7053 44.9681 91.6223 44.9498 91.5458 44.9155C91.4692 44.8813 91.4007 44.8318 91.3445 44.7702C91.2882 44.7086 91.2455 44.6362 91.219 44.5576C91.1925 44.4789 91.1828 44.3957 91.1904 44.3132V42.2577C91.2035 42.1502 91.1933 42.0413 91.1606 41.938C91.1278 41.8347 91.0732 41.7394 91.0004 41.6585C90.9276 41.5775 90.8381 41.5127 90.738 41.4684C90.6379 41.424 90.5294 41.401 90.4196 41.401C90.3098 41.401 90.2013 41.424 90.1012 41.4684C90.0011 41.5127 89.9117 41.5775 89.8388 41.6585C89.766 41.7394 89.7114 41.8347 89.6786 41.938C89.6459 42.0413 89.6357 42.1502 89.6488 42.2577V44.3132C89.6565 44.3957 89.6467 44.4789 89.6202 44.5576C89.5937 44.6362 89.551 44.7086 89.4947 44.7702C89.4385 44.8318 89.3699 44.8813 89.2934 44.9155C89.2168 44.9498 89.1339 44.9681 89.0499 44.9692C88.9653 44.9697 88.8816 44.9526 88.8042 44.9189C88.7268 44.8852 88.6576 44.8358 88.601 44.7738C88.5444 44.7118 88.5018 44.6387 88.476 44.5593C88.4501 44.48 88.4416 44.3961 88.451 44.3132L88.4953 41.1643Z" fill="white"/>
<path d="M92.3984 39.4588C92.3984 39.3283 92.451 39.2032 92.5446 39.1109C92.6382 39.0186 92.7652 38.9668 92.8976 38.9668C93.0299 38.9668 93.1568 39.0186 93.2504 39.1109C93.344 39.2032 93.3966 39.3283 93.3966 39.4588V40.8474C93.3966 40.9779 93.344 41.103 93.2504 41.1953C93.1568 41.2876 93.0299 41.3394 92.8976 41.3394C92.7652 41.3394 92.6382 41.2876 92.5446 41.1953C92.451 41.103 92.3984 40.9779 92.3984 40.8474V39.4588Z" fill="white"/>
<path d="M96.7005 41.8097C96.4787 41.8097 96.024 41.4708 95.5914 41.4708C95.3807 41.4708 95.1922 41.5692 95.1922 41.7988C95.1922 42.3455 97.2662 42.2689 97.2662 43.6138C97.2662 44.401 96.5896 44.9914 95.5582 44.9914C94.8927 44.9914 93.8945 44.6196 93.8945 44.0839C93.9019 43.9507 93.9573 43.8246 94.0509 43.7283C94.1445 43.632 94.2701 43.572 94.4047 43.5591C94.8705 43.5591 95.0812 43.9636 95.6469 43.9636C96.0129 43.9636 96.1238 43.8434 96.1238 43.6247C96.1238 43.0889 94.0387 43.1655 94.0387 41.8097C94.0449 41.612 94.0929 41.4178 94.1796 41.2394C94.2662 41.061 94.3897 40.9024 94.5422 40.7738C94.6946 40.6452 94.8725 40.5493 95.0646 40.4923C95.2568 40.4354 95.4589 40.4186 95.658 40.443C96.2569 40.443 97.1553 40.7054 97.1553 41.2958C97.1583 41.4274 97.1089 41.5549 97.0176 41.651C96.9264 41.747 96.8006 41.804 96.6672 41.8097" fill="white"/>
<path d="M103.521 41.744C103.222 41.744 102.956 41.5144 102.579 41.5144C101.891 41.5144 101.569 42.1157 101.569 42.728C101.545 43.0164 101.637 43.3027 101.826 43.5241C102.016 43.7454 102.286 43.8838 102.579 43.9088C102.879 43.8486 103.176 43.7682 103.466 43.6683C103.602 43.6711 103.732 43.7265 103.827 43.8226C103.923 43.9187 103.976 44.0477 103.976 44.1822C103.976 44.7944 102.945 44.9912 102.512 44.9912C102.221 44.9814 101.934 44.915 101.669 44.7958C101.404 44.6767 101.165 44.5072 100.966 44.297C100.767 44.0868 100.612 43.8401 100.51 43.5708C100.408 43.3016 100.361 43.0152 100.371 42.728C100.358 42.439 100.403 42.1502 100.504 41.8785C100.604 41.6067 100.759 41.3573 100.958 41.1448C101.157 40.9323 101.397 40.7608 101.663 40.6403C101.93 40.5198 102.219 40.4527 102.512 40.4429C102.989 40.4429 103.976 40.6069 103.976 41.1864C103.976 41.4269 103.799 41.744 103.521 41.744Z" fill="white"/>
<path d="M104.685 39.24C104.676 39.1571 104.684 39.0733 104.71 38.9939C104.736 38.9145 104.779 38.8414 104.835 38.7794C104.892 38.7175 104.961 38.668 105.039 38.6343C105.116 38.6006 105.2 38.5835 105.284 38.584C105.368 38.5852 105.451 38.6034 105.528 38.6377C105.604 38.6719 105.673 38.7214 105.729 38.783C105.785 38.8446 105.828 38.917 105.855 38.9956C105.881 39.0743 105.891 39.1575 105.883 39.24V40.8472C106.028 40.7058 106.202 40.5965 106.393 40.5267C106.585 40.457 106.789 40.4283 106.992 40.4427C107.208 40.4285 107.425 40.4596 107.628 40.5339C107.83 40.6083 108.015 40.7242 108.169 40.874C108.323 41.0238 108.443 41.2041 108.521 41.4031C108.6 41.602 108.634 41.815 108.623 42.0281V44.2913C108.632 44.3742 108.623 44.4581 108.598 44.5375C108.572 44.6168 108.529 44.6899 108.473 44.7519C108.416 44.8139 108.347 44.8633 108.269 44.897C108.192 44.9307 108.108 44.9479 108.024 44.9473C107.94 44.9462 107.857 44.9279 107.78 44.8937C107.704 44.8594 107.635 44.8099 107.579 44.7483C107.523 44.6867 107.48 44.6143 107.453 44.5357C107.427 44.4571 107.417 44.3739 107.425 44.2913V42.2577C107.436 42.1524 107.424 42.046 107.39 41.9457C107.355 41.8454 107.299 41.7537 107.226 41.6768C107.152 41.5999 107.062 41.5397 106.962 41.5003C106.863 41.4609 106.756 41.4433 106.648 41.4486C106.543 41.4467 106.438 41.4667 106.34 41.5074C106.243 41.5481 106.155 41.6086 106.083 41.6849C106.011 41.7612 105.956 41.8517 105.921 41.9504C105.887 42.049 105.874 42.1537 105.883 42.2577V44.3132C105.891 44.3957 105.881 44.4789 105.855 44.5576C105.828 44.6362 105.785 44.7086 105.729 44.7702C105.673 44.8318 105.604 44.8813 105.528 44.9155C105.451 44.9498 105.368 44.968 105.284 44.9692C105.2 44.9697 105.116 44.9526 105.039 44.9189C104.961 44.8852 104.892 44.8357 104.835 44.7738C104.779 44.7118 104.736 44.6387 104.71 44.5593C104.684 44.4799 104.676 44.3961 104.685 44.3132V39.24Z" fill="white"/>
<path d="M113.691 44.1714C113.691 44.4776 113.691 44.9477 113.114 44.9477C112.771 44.9477 112.626 44.7619 112.538 44.4448C112.407 44.6133 112.24 44.7502 112.047 44.8449C111.855 44.9397 111.644 44.9898 111.429 44.9915C111.145 44.978 110.867 44.9079 110.612 44.7854C110.357 44.663 110.13 44.4907 109.944 44.2791C109.759 44.0675 109.618 43.8209 109.532 43.5543C109.446 43.2877 109.416 43.0067 109.443 42.7282C109.419 42.4492 109.451 42.1682 109.539 41.9017C109.626 41.6351 109.766 41.3883 109.95 41.1756C110.135 40.9629 110.361 40.7886 110.615 40.6629C110.869 40.5371 111.145 40.4624 111.429 40.4431C111.643 40.4392 111.856 40.4858 112.049 40.5789C112.242 40.6721 112.409 40.8092 112.538 40.9788C112.557 40.8417 112.626 40.716 112.732 40.6254C112.838 40.5349 112.974 40.4856 113.114 40.4868C113.691 40.4868 113.691 40.957 113.691 41.2631V44.1714ZM111.573 43.909C112.194 43.909 112.493 43.2858 112.493 42.7282C112.493 42.1706 112.205 41.5255 111.573 41.5255C110.941 41.5255 110.619 42.1597 110.619 42.7282C110.619 43.2968 110.918 43.909 111.573 43.909Z" fill="white"/>
<path d="M114.646 41.0772C114.644 40.9973 114.659 40.918 114.69 40.8442C114.721 40.7704 114.767 40.7036 114.826 40.6482C114.884 40.5927 114.953 40.5498 115.029 40.522C115.105 40.4942 115.186 40.4822 115.267 40.4868C115.577 40.4868 115.844 40.607 115.844 40.9788C115.926 40.8293 116.048 40.7046 116.196 40.618C116.345 40.5313 116.514 40.486 116.687 40.4868C116.769 40.4864 116.85 40.503 116.925 40.5355C117 40.568 117.068 40.6156 117.123 40.6754C117.178 40.7351 117.221 40.8056 117.247 40.8823C117.273 40.9591 117.282 41.0404 117.274 41.1209C117.274 41.5036 116.908 41.5255 116.553 41.6895C116.199 41.8535 115.833 42.0175 115.833 42.4767V44.2917C115.833 44.4482 115.769 44.5984 115.657 44.7091C115.545 44.8199 115.392 44.8821 115.234 44.8821C115.075 44.8821 114.922 44.8199 114.81 44.7091C114.698 44.5984 114.635 44.4482 114.635 44.2917L114.646 41.0772Z" fill="white"/>
<path d="M118.982 39.3604C118.983 39.4494 118.967 39.5379 118.934 39.6207C118.901 39.7035 118.851 39.779 118.788 39.843C118.726 39.9069 118.651 39.9581 118.568 39.9935C118.485 40.0289 118.396 40.0478 118.305 40.0492C118.125 40.0409 117.954 39.965 117.829 39.837C117.703 39.709 117.632 39.5386 117.629 39.3604C117.64 39.1891 117.715 39.028 117.84 38.9087C117.966 38.7894 118.131 38.7204 118.305 38.7153C118.48 38.7179 118.647 38.786 118.773 38.9059C118.899 39.0257 118.973 39.1882 118.982 39.3604ZM117.707 41.1645C117.697 41.0816 117.706 40.9977 117.732 40.9183C117.757 40.8389 117.8 40.7659 117.857 40.7039C117.913 40.6419 117.982 40.5924 118.06 40.5588C118.137 40.5251 118.221 40.5079 118.305 40.5084C118.389 40.5096 118.472 40.5279 118.549 40.5621C118.625 40.5964 118.694 40.6458 118.75 40.7074C118.806 40.769 118.849 40.8414 118.876 40.9201C118.902 40.9987 118.912 41.0819 118.904 41.1645V44.3133C118.912 44.3958 118.902 44.4791 118.876 44.5577C118.849 44.6363 118.806 44.7087 118.75 44.7703C118.694 44.8319 118.625 44.8814 118.549 44.9157C118.472 44.9499 118.389 44.9682 118.305 44.9693C118.221 44.9699 118.137 44.9527 118.06 44.919C117.982 44.8853 117.913 44.8359 117.857 44.7739C117.8 44.7119 117.757 44.6388 117.732 44.5595C117.706 44.4801 117.697 44.3962 117.707 44.3133V41.1645Z" fill="white"/>
<path d="M120.148 41.5693H119.882C119.812 41.5741 119.742 41.5642 119.677 41.5401C119.611 41.516 119.552 41.4783 119.502 41.4296C119.453 41.3808 119.415 41.3222 119.39 41.2577C119.366 41.1931 119.356 41.1241 119.361 41.0554C119.359 40.9875 119.372 40.92 119.397 40.857C119.423 40.794 119.461 40.7367 119.51 40.6887C119.559 40.6407 119.617 40.6029 119.681 40.5776C119.745 40.5523 119.813 40.54 119.882 40.5415H120.148V39.8308C120.14 39.7483 120.15 39.6651 120.177 39.5865C120.203 39.5078 120.246 39.4354 120.302 39.3738C120.358 39.3122 120.427 39.2627 120.503 39.2285C120.58 39.1943 120.663 39.176 120.747 39.1748C120.832 39.1743 120.915 39.1914 120.993 39.2251C121.07 39.2588 121.139 39.3083 121.196 39.3703C121.252 39.4322 121.295 39.5053 121.321 39.5847C121.347 39.6641 121.355 39.748 121.346 39.8308V40.5415H121.69C122 40.5415 122.266 40.6727 122.266 41.0554C122.266 41.4381 122 41.5693 121.69 41.5693H121.346V44.2917C121.355 44.3746 121.347 44.4585 121.321 44.5379C121.295 44.6172 121.252 44.6903 121.196 44.7523C121.139 44.8143 121.07 44.8637 120.993 44.8974C120.915 44.9311 120.832 44.9483 120.747 44.9477C120.663 44.9466 120.58 44.9283 120.503 44.8941C120.427 44.8598 120.358 44.8103 120.302 44.7487C120.246 44.6871 120.203 44.6147 120.177 44.5361C120.15 44.4575 120.14 44.3743 120.148 44.2917V41.5693Z" fill="white"/>
<path d="M122.477 41.296C122.439 41.1985 122.42 41.0945 122.422 40.9899C122.438 40.8526 122.504 40.7258 122.609 40.6332C122.713 40.5407 122.847 40.4887 122.988 40.4869C123.12 40.4829 123.249 40.5213 123.357 40.5962C123.465 40.6711 123.546 40.7786 123.587 40.9024L124.407 43.0891L125.295 40.9024C125.334 40.7776 125.414 40.6691 125.522 40.5939C125.63 40.5187 125.761 40.4811 125.893 40.4869C126.033 40.4909 126.166 40.5437 126.27 40.6358C126.374 40.728 126.441 40.8535 126.459 40.9899C126.463 41.0958 126.44 41.201 126.393 41.296L124.396 46.2161C124.362 46.3424 124.29 46.4552 124.189 46.5394C124.088 46.6235 123.962 46.6748 123.831 46.6863C123.754 46.6953 123.677 46.6891 123.604 46.6679C123.53 46.6467 123.462 46.611 123.403 46.5629C123.344 46.5149 123.295 46.4555 123.26 46.3883C123.225 46.3212 123.204 46.2477 123.198 46.1724C123.203 46.0557 123.229 45.9408 123.276 45.8334L123.797 44.5542L122.477 41.296Z" fill="white"/>
<path d="M21.2836 18.8052C18.655 21.8119 14.629 25.7699 11.3018 27.6177C11.1576 26.6555 10.481 23.5394 11.5347 21.4074C11.9499 20.46 12.5985 19.6298 13.4217 18.9921C14.2448 18.3544 15.2164 17.9294 16.2483 17.7556C17.1231 17.5821 18.0242 17.5821 18.899 17.7556C19.7869 17.8985 20.6187 18.2764 21.3057 18.8489" fill="#EE3123"/>
<path d="M15.9602 2.6346C15.9889 3.08181 16.0632 3.52504 16.182 3.95757C15.9829 3.97666 15.7823 3.97666 15.5831 3.95757C15.476 3.52261 15.4019 3.0804 15.3613 2.6346C15.3613 2.55807 15.9602 2.6346 15.9602 2.6346Z" fill="white"/>
<path d="M16.2817 4.43848C16.8794 6.98019 17.8827 9.41222 19.2541 11.6437C19.1432 11.7202 18.7772 11.8514 18.7106 11.8077C17.3212 9.52637 16.3173 7.03748 15.7383 4.43848H16.2928" fill="white"/>
<path d="M33.1316 12.4494C29.6491 11.1702 25.8006 13.7287 21.8079 18.1458C18.5915 21.568 16.4288 24.0828 12.9352 26.4663C11.0719 27.7346 7.22336 29.4184 4.77228 28.653C4.56386 28.5828 4.37153 28.4729 4.20629 28.3293C4.04105 28.1858 3.90618 28.0116 3.80934 27.8166C3.7125 27.6216 3.65562 27.4097 3.64197 27.193C3.62831 26.9763 3.65815 26.7591 3.72977 26.5538C4.2281 25.3551 5.06649 24.3235 6.14449 23.5828C7.22248 22.842 8.49432 22.4234 9.80754 22.3771C9.87422 21.964 9.85555 21.5419 9.75264 21.136C9.64972 20.7302 9.46467 20.3491 9.20862 20.0155C11.0213 18.2997 12.993 16.7549 15.0979 15.4015C17.4182 13.9434 20.027 12.9892 22.7506 12.6025L24.1702 14.0676L24.6027 13.7287C24.4142 13.4116 23.904 13.0617 23.3938 12.2745C21.8869 9.83159 20.7651 7.17727 20.0666 4.4023C19.1904 1.12223 19.8669 0.564614 18.9575 0.324075C16.3382 0.0954304 13.6994 0.415601 11.2145 1.26356C8.7296 2.11153 6.45477 3.4681 4.53938 5.24419C2.38775 7.27784 0.380298 9.9675 0.0253906 13.0945C0.0253906 13.9364 0.868319 14.4612 1.67795 14.658C4.82775 14.9751 6.66884 17.7085 8.33247 19.928C8.80937 20.6168 9.34172 21.2838 9.11991 21.732C7.79189 21.9736 6.5474 22.5424 5.50221 23.3854C4.45703 24.2284 3.64512 25.3183 3.14195 26.5538C3.0317 27.0432 3.04161 27.5516 3.17086 28.0365C3.30011 28.5215 3.54494 28.969 3.88502 29.3418C4.87211 30.3368 5.80373 31.1568 7.41191 30.9928C12.9573 30.4352 16.3844 27.2972 19.8781 23.3393C23.3717 19.3813 24.6804 17.785 27.7415 15.6858C29.5103 14.5333 31.6007 13.956 33.7194 14.0348C35.1169 14.0348 35.7047 15.1282 35.8378 16.4511C35.9389 17.499 35.8601 18.5561 35.6049 19.5781C35.4829 20.1576 35.7269 20.1576 36.0818 20.4309C36.3208 19.72 36.488 18.9876 36.5809 18.2442C36.9025 15.6311 36.0596 13.4772 33.1427 12.4057L33.1316 12.4494ZM8.85374 19.3813C8.85374 19.3813 4.94974 13.9145 1.83321 13.9801C1.16775 13.8817 0.72412 13.3788 0.72412 12.9852C0.72412 11.1702 1.83323 9.7707 2.72049 8.26186C6.29175 3.51669 13.5452 0.345942 18.7357 0.947289C19.4011 1.03476 18.0591 3.53855 22.4289 11.8809C20.5061 12.1977 18.6388 12.7831 16.8835 13.6193C13.9489 15.1201 11.2575 17.0437 8.89808 19.3267L8.85374 19.3813ZM22.4844 19.3267C17.7486 24.4217 14.4324 29.1669 7.75572 30.1181C7.31725 30.2485 6.85033 30.2541 6.40879 30.1342C5.96725 30.0142 5.56908 29.7737 5.26028 29.4402C6.91528 29.5868 8.58125 29.3237 10.107 28.6749C17.3715 26.1055 22.562 17.293 26.9429 14.3737C29.1611 12.9196 32.1778 11.9574 33.5309 13.2804C29.6491 13.2804 26.71 14.7892 22.44 19.3267" fill="white"/>
<path d="M37.5093 23.9662C37.4476 26.3427 36.6246 28.6391 35.1581 30.5263C33.8604 32.2976 32.1192 34.7358 31.1654 36.1681C29.867 37.8927 28.7835 39.7648 27.9379 41.7442C27.6939 42.4439 27.1837 44.0074 27.1837 44.0074C25.4321 42.3584 23.5479 40.852 21.5496 39.5028C19.6576 38.3834 17.8981 37.0595 16.3036 35.5558C14.7176 34.0251 12.5993 31.0074 12.4551 30.1765C16.1594 28.7114 18.9543 25.5625 20.5847 23.496C22.459 21.1234 24.8879 18.0292 28.3483 17.1436C30.2255 16.6295 32.2272 16.7923 33.9935 17.6028C35.098 18.2573 36.002 19.1946 36.6093 20.315C37.2167 21.4355 37.5047 22.6973 37.4428 23.9662" fill="#EE3123"/>
</g>
<defs>
<clipPath id="clip0_3789_48376">
<rect width="140" height="46.4896" fill="white" transform="translate(0 0.196289)"/>
</clipPath>
</defs>
</svg>
