<svg width="23" height="22" viewBox="0 0 23 22" fill="none" xmlns="http://www.w3.org/2000/svg">
<path d="M6.30616 0.817478C6.70123 0.789629 7.09817 0.82765 7.48077 0.929988C7.72731 0.980523 7.97685 1.0151 8.22784 1.0335C8.67788 1.11 9.12792 1.19551 9.60497 1.28102C9.74448 1.30802 9.875 1.38003 10.0145 1.40703C10.3268 1.48759 10.6465 1.53584 10.9686 1.55104C11.3061 1.55104 11.5177 1.23151 11.7877 1.0605C11.8959 0.966946 12.0172 0.889633 12.1477 0.830978C12.9795 0.490884 13.8527 0.262374 14.7445 0.151409C15.1405 0.151409 15.5365 0.115405 15.9326 0.115405C16.6498 0.0849654 17.3639 0.225333 18.0163 0.524945C18.6673 0.820058 19.3398 1.06529 20.028 1.25852C20.5142 1.39839 20.9391 1.69804 21.2341 2.1091C21.4006 2.34312 21.6211 2.53214 21.8101 2.75266C22.233 3.25012 22.524 3.84596 22.6562 4.48532C22.7597 4.97587 22.8677 5.46642 22.9622 5.96146C23.0216 6.27948 23.0109 6.60663 22.9307 6.92006C22.7833 7.43898 22.6868 7.97105 22.6427 8.50871C22.6139 8.72227 22.5673 8.93302 22.5032 9.13877C22.3769 9.51312 22.288 9.89903 22.2377 10.2909C22.205 10.7957 22.0268 11.2803 21.7246 11.686C21.1686 12.5674 20.5425 13.4027 19.8524 14.1838C19.4654 14.6068 19.0919 15.0478 18.7138 15.4799C18.6193 15.5879 18.5338 15.7049 18.4303 15.8039C17.4402 16.794 16.4456 17.7826 15.4465 18.7697C15.3205 18.8957 15.172 19.0037 15.037 19.1207L13.5563 20.3718C13.2068 20.7351 12.8103 21.0499 12.3772 21.3079C12.2542 21.3804 12.1482 21.4787 12.0667 21.596C11.9722 21.704 11.8912 21.8255 11.7337 21.848C11.4886 21.9118 11.2299 21.9008 10.9911 21.8165C10.6593 21.6739 10.3629 21.4604 10.1225 21.1909C9.50187 20.5356 8.82746 19.9335 8.10633 19.3907C7.55175 18.9314 7.04647 18.4156 6.59869 17.8516C6.40313 17.5953 6.18635 17.3559 5.95062 17.136C5.17512 16.4325 4.4446 15.681 3.76341 14.8858C3.26836 14.3188 2.74631 13.7742 2.27377 13.1847C1.7652 12.5759 1.37313 11.8787 1.11717 11.128C0.991154 10.7184 0.824639 10.3224 0.667123 9.91735C0.600239 9.71246 0.509611 9.51611 0.397095 9.33229C0.209387 9.02558 0.084832 8.68447 0.0307346 8.32897C-0.0233628 7.97347 -0.0059182 7.61075 0.0820594 7.26209C0.28461 6.31351 0.586296 5.38884 0.982145 4.50332C1.46527 3.37685 2.19231 2.3716 3.11085 1.56005C3.37696 1.31422 3.70541 1.1461 4.06044 1.074C4.549 0.957412 5.0432 0.865784 5.54108 0.799472C5.79623 0.789122 6.05178 0.795139 6.30616 0.817478ZM11.5582 3.00918C11.2212 2.69319 10.825 2.44699 10.3925 2.28479C9.95994 2.12258 9.49957 2.04758 9.03791 2.06409C8.50057 2.03567 7.9655 1.97405 7.43576 1.87958C7.15439 1.82288 6.86765 1.79722 6.58068 1.80307C5.83023 1.86788 5.09089 2.02663 4.37998 2.27561C4.24222 2.31658 4.12293 2.40406 4.04245 2.52314C3.74606 2.97298 3.40368 3.39077 3.02084 3.76976C2.80713 4.01143 2.61583 4.27202 2.44929 4.54833C1.96147 5.39608 1.58626 6.30382 1.33318 7.24859C1.14207 7.87208 1.13271 8.53714 1.30618 9.16577C1.70678 10.6652 2.48096 12.0386 3.55639 13.1577C4.33047 13.9047 5.08654 14.6743 5.85161 15.4079C6.10814 15.6599 6.38267 15.8939 6.64369 16.1414L8.44387 17.8516C8.7814 18.1756 9.10993 18.5132 9.46996 18.8057C10.0353 19.2484 10.5748 19.7232 11.0856 20.2278C11.1378 20.2944 11.2077 20.3449 11.2873 20.3736C11.3669 20.4022 11.453 20.4079 11.5357 20.3898C11.6704 20.3119 11.7932 20.2149 11.9002 20.1018C12.3427 19.6292 12.8195 19.19 13.3268 18.7877C13.7139 18.4187 14.1414 18.0901 14.5374 17.7211C15.7661 16.5645 16.9542 15.3674 18.0838 14.1207C18.8705 13.2835 19.6026 12.3966 20.2755 11.4655C20.9568 10.5344 21.3679 9.43341 21.4636 8.28369C21.4636 8.00016 21.5401 7.71663 21.5851 7.43311C21.7133 6.7611 21.7133 6.07092 21.5851 5.39891C21.4411 4.73285 21.2701 4.07578 21.1036 3.41422C21.0719 3.31123 21.0164 3.21717 20.9416 3.13969C20.649 2.82466 20.352 2.50963 20.0415 2.23961C19.7771 1.9691 19.4614 1.75412 19.1129 1.60728C18.7644 1.46045 18.39 1.38471 18.0118 1.38453C17.76 1.3965 17.508 1.36916 17.2647 1.30352C16.6026 1.12797 15.9061 1.12797 15.244 1.30352C14.7175 1.41603 14.1909 1.54204 13.6689 1.65906C13.1761 1.7725 12.7196 2.0077 12.3412 2.34312C12.0982 2.50964 11.8552 2.73466 11.5582 3.00918Z" fill="white"/>
<path d="M11.8998 18.6304C11.7149 18.66 11.5258 18.6501 11.3451 18.6012C11.1643 18.5523 10.996 18.4656 10.8512 18.3469C9.93629 17.7151 9.08473 16.9961 8.30845 16.2002C7.77586 15.6167 7.18807 15.0862 6.55328 14.616C5.8474 14.0623 5.23897 13.3945 4.75311 12.6403C4.04322 11.6027 3.44009 10.496 2.95294 9.33701C2.91694 9.247 2.88993 9.09398 2.95294 9.03998C3.28147 8.67094 2.87644 8.55393 2.73242 8.34241C2.81343 8.11739 2.90343 7.89237 2.97544 7.66285C3.0277 7.52893 3.04918 7.38497 3.03827 7.24163C3.02736 7.09829 2.98436 6.95924 2.91244 6.83477C2.86159 6.73835 2.83502 6.63099 2.83502 6.52198C2.83502 6.41298 2.86159 6.30563 2.91244 6.20921C3.16633 5.34008 3.68367 4.57115 4.39308 4.0085C4.6271 3.84198 4.84312 3.62146 5.05914 3.46394C5.58205 3.08204 6.2118 2.87423 6.85931 2.86989C7.86698 2.83597 8.87032 3.017 9.80259 3.40094C10.3471 3.66196 10.9412 3.82848 11.5668 4.058C11.9943 3.89149 12.3813 3.55846 12.8269 3.34244C12.9523 3.27136 13.0726 3.19165 13.1869 3.10391C13.8065 2.70038 14.5128 2.44924 15.2481 2.37102C15.9834 2.2928 16.7267 2.38972 17.4173 2.65386C18.4699 3.03953 19.3877 3.72281 20.0591 4.62056C20.4704 5.12941 20.6902 5.76647 20.6801 6.42073C20.7151 7.53622 20.5142 8.64652 20.0906 9.67904C19.8745 10.1291 19.681 10.5791 19.4695 11.0562C19.3827 11.2528 19.2756 11.4398 19.15 11.6142C18.6999 12.1813 18.2499 12.7528 17.7999 13.2974C17.5648 13.5701 17.299 13.8148 17.0078 14.0265C15.9046 14.8346 14.8745 15.7382 13.9295 16.7267C13.733 16.9363 13.5192 17.129 13.2904 17.3028C12.7529 17.6607 12.2823 18.1101 11.8998 18.6304ZM10.8557 17.0867C11.1611 16.9449 11.4292 16.7338 11.6388 16.4702C12.6974 15.395 13.812 14.3765 14.9781 13.4189C15.5455 12.9774 16.0726 12.4864 16.5532 11.9518C17.8776 10.4767 18.831 8.70708 19.3345 6.78976C19.3741 6.6172 19.3848 6.43926 19.366 6.26321C19.3423 6.04847 19.3001 5.83617 19.24 5.62865C19.1171 5.06304 18.8158 4.55187 18.3804 4.17051C17.717 3.81677 16.9807 3.62116 16.2292 3.59896C15.554 3.69045 14.8931 3.86738 14.2625 4.12551C14.1026 4.2094 13.9354 4.27869 13.763 4.33253C12.9304 4.58005 12.2688 5.0121 12.0663 5.93018C12.0402 5.99782 11.9913 6.05418 11.928 6.08953C11.8647 6.12487 11.791 6.13696 11.7198 6.1237C11.5799 6.10957 11.4455 6.06169 11.3282 5.98419C11.173 5.83547 11.03 5.67443 10.9007 5.50264C10.5129 5.13642 10.096 4.80229 9.65407 4.50354C8.99355 4.2252 8.2869 4.07257 7.57038 4.0535C6.88307 4.04272 6.21952 4.30491 5.7252 4.78257C4.6361 5.83567 4.33007 7.1768 4.37508 8.62144C4.44294 9.33897 4.63002 10.0402 4.92862 10.6961C5.04185 11.04 5.25493 11.3424 5.54069 11.5647C5.78013 11.7277 5.9639 11.9602 6.06724 12.2308C6.40457 12.9475 6.90003 13.5784 7.51637 14.076C8.11492 14.643 8.71798 15.2011 9.28954 15.7996C9.75696 16.2911 10.283 16.7234 10.8557 17.0867Z" fill="white"/>
</svg>
