<svg width="35" height="35" viewBox="0 0 35 35" fill="none" xmlns="http://www.w3.org/2000/svg">
<path fill-rule="evenodd" clip-rule="evenodd" d="M17.5 0C7.83502 0 0 7.83502 0 17.5C0 27.165 7.83502 35 17.5 35C27.165 35 35 27.165 35 17.5C35 7.83502 27.165 0 17.5 0ZM13.6524 8.22298C14.6479 8.17768 14.966 8.16659 17.5008 8.16659H17.4979C20.0335 8.16659 20.3505 8.17768 21.346 8.22298C22.3396 8.26848 23.0183 8.42579 23.6133 8.6566C24.2277 8.8948 24.7469 9.21369 25.2661 9.73286C25.7852 10.2516 26.1041 10.7724 26.3433 11.3862C26.5727 11.9797 26.7302 12.6579 26.7769 13.6515C26.8216 14.6471 26.8333 14.9652 26.8333 17.5C26.8333 20.0348 26.8216 20.3522 26.7769 21.3477C26.7302 22.341 26.5727 23.0194 26.3433 23.613C26.1041 24.2267 25.7852 24.7474 25.2661 25.2662C24.7475 25.7854 24.2275 26.1051 23.6138 26.3434C23.02 26.5743 22.341 26.7316 21.3474 26.7771C20.3518 26.8224 20.0347 26.8335 17.4997 26.8335C14.9651 26.8335 14.6471 26.8224 13.6516 26.7771C12.6582 26.7316 11.9797 26.5743 11.3859 26.3434C10.7724 26.1051 10.2517 25.7854 9.7331 25.2662C9.21412 24.7474 8.89523 24.2267 8.65664 23.6128C8.42603 23.0194 8.26872 22.3412 8.22302 21.3475C8.17791 20.352 8.16663 20.0348 8.16663 17.5C8.16663 14.9652 8.1783 14.6469 8.22283 13.6513C8.26755 12.6581 8.42505 11.9797 8.65645 11.386C8.89561 10.7724 9.21451 10.2516 9.73368 9.73286C10.2525 9.21388 10.7732 8.89499 11.3871 8.6566C11.9805 8.42579 12.6587 8.26848 13.6524 8.22298Z" fill="#212426"/>
<path fill-rule="evenodd" clip-rule="evenodd" d="M16.6638 9.84804C16.8264 9.84778 17.0013 9.84786 17.19 9.84795L17.5011 9.84804C19.9931 9.84804 20.2885 9.85698 21.2726 9.9017C22.1826 9.94332 22.6765 10.0954 23.0055 10.2231C23.441 10.3923 23.7516 10.5945 24.078 10.9212C24.4047 11.2479 24.6069 11.559 24.7765 11.9945C24.9042 12.3231 25.0565 12.817 25.0979 13.727C25.1426 14.7109 25.1524 15.0065 25.1524 17.4974C25.1524 19.9882 25.1426 20.2838 25.0979 21.2677C25.0563 22.1777 24.9042 22.6716 24.7765 23.0002C24.6073 23.4358 24.4047 23.7459 24.078 24.0724C23.7514 24.399 23.4412 24.6013 23.0055 24.7704C22.6769 24.8988 22.1826 25.0504 21.2726 25.0921C20.2887 25.1368 19.9931 25.1465 17.5011 25.1465C15.0089 25.1465 14.7135 25.1368 13.7296 25.0921C12.8196 25.0501 12.3257 24.898 11.9965 24.7702C11.5609 24.6011 11.2498 24.3989 10.9231 24.0722C10.5965 23.7455 10.3943 23.4352 10.2247 22.9994C10.0969 22.6708 9.94469 22.1769 9.90328 21.2669C9.85855 20.283 9.84961 19.9874 9.84961 17.495C9.84961 15.0026 9.85855 14.7086 9.90328 13.7247C9.94489 12.8147 10.0969 12.3208 10.2247 11.9918C10.3939 11.5562 10.5965 11.2451 10.9231 10.9185C11.2498 10.5918 11.5609 10.3896 11.9965 10.22C12.3255 10.0917 12.8196 9.94001 13.7296 9.8982C14.5906 9.85931 14.9243 9.84765 16.6638 9.8457V9.84804ZM22.4834 11.3978C21.8651 11.3978 21.3634 11.8989 21.3634 12.5174C21.3634 13.1357 21.8651 13.6374 22.4834 13.6374C23.1017 13.6374 23.6034 13.1357 23.6034 12.5174C23.6034 11.8991 23.1017 11.3974 22.4834 11.3974V11.3978ZM12.7077 17.4994C12.7077 14.8524 14.8538 12.7063 17.5008 12.7063H17.5006C20.1476 12.7063 22.2932 14.8524 22.2932 17.4994C22.2932 20.1464 20.1478 22.2916 17.5008 22.2916C14.8538 22.2916 12.7077 20.1464 12.7077 17.4994Z" fill="#212426"/>
<path d="M17.5008 14.3887C19.2189 14.3887 20.6119 15.7815 20.6119 17.4998C20.6119 19.2179 19.2189 20.611 17.5008 20.611C15.7825 20.611 14.3896 19.2179 14.3896 17.4998C14.3896 15.7815 15.7825 14.3887 17.5008 14.3887Z" fill="#212426"/>
</svg>
