<svg width="30" height="30" viewBox="0 0 30 30" fill="none" xmlns="http://www.w3.org/2000/svg">
<circle cx="15" cy="15" r="14" stroke="#fff" stroke-width="2"/>
<circle cx="15" cy="15" r="14" stroke="#fff" stroke-width="2"/>
<mask id="path-3-inside-1_887_31444" fill="white">
<path fill-rule="evenodd" clip-rule="evenodd" d="M4.67578 25.8811C6.76703 22.3599 10.6083 20 15.0007 20C19.3931 20 23.2343 22.3599 25.3256 25.8811C22.6362 28.4338 19.0013 30 15.0007 30C11 30 7.36513 28.4338 4.67578 25.8811Z"/>
</mask>
<path d="M4.67578 25.8811L2.9562 24.8598L2.14091 26.2325L3.2989 27.3316L4.67578 25.8811ZM25.3256 25.8811L26.7025 27.3316L27.8604 26.2325L27.0452 24.8598L25.3256 25.8811ZM6.39536 26.9024C8.14118 23.9629 11.3427 22 15.0007 22V18C9.87376 18 5.39289 20.757 2.9562 24.8598L6.39536 26.9024ZM15.0007 22C18.6586 22 21.8602 23.9629 23.606 26.9024L27.0452 24.8598C24.6085 20.757 20.1276 18 15.0007 18V22ZM23.9487 24.4305C21.6161 26.6446 18.4688 28 15.0007 28V32C19.5339 32 23.6563 30.223 26.7025 27.3316L23.9487 24.4305ZM15.0007 28C11.5325 28 8.38524 26.6446 6.05267 24.4305L3.2989 27.3316C6.34503 30.223 10.4675 32 15.0007 32V28Z" fill="#fff" mask="url(#path-3-inside-1_887_31444)"/>
<circle cx="15" cy="12" r="6" stroke="#fff" stroke-width="2"/>
</svg>